<svg width="1440" height="296" viewBox="0 0 1440 296" fill="none" xmlns="http://www.w3.org/2000/svg">
<g opacity="0.62">
<path d="M803.666 -45.5691H802.103V644.353H803.666V-45.5691Z" fill="#3B351A"/>
<g opacity="0.62">
<path d="M219.044 40.1824C219.044 42.5282 217.22 44.6134 214.613 44.6134C212.268 44.6134 210.182 42.7888 210.182 40.1824C210.182 37.8366 212.007 35.7515 214.613 35.7515C216.959 36.0121 219.044 37.8366 219.044 40.1824Z" fill="#3B351A"/>
<path d="M215.395 40.1824H213.832V730.104H215.395V40.1824Z" fill="#3B351A"/>
</g>
<path d="M297.237 72.7628C297.237 75.1086 295.413 77.1938 292.806 77.1938C290.461 77.1938 288.375 75.3692 288.375 72.7628C288.375 70.417 290.2 68.3319 292.806 68.3319C295.413 68.5925 297.237 70.417 297.237 72.7628Z" fill="#3B351A"/>
<path d="M293.849 72.7628H292.285V762.685H293.849V72.7628Z" fill="#3B351A"/>
<g opacity="0.62">
<path d="M611.573 -19.7655H610.009V670.156H611.573V-19.7655Z" fill="#3B351A"/>
</g>
<g opacity="0.62">
<path d="M1308.53 73.8054C1308.53 76.1512 1306.71 78.2363 1304.1 78.2363C1301.75 78.2363 1299.67 76.4118 1299.67 73.8054C1299.67 71.4596 1301.49 69.3745 1304.1 69.3745C1306.71 69.6351 1308.53 71.4596 1308.53 73.8054Z" fill="#3B351A"/>
<path d="M1305.14 73.8054H1303.58V763.727H1305.14V73.8054Z" fill="#3B351A"/>
</g>
<path d="M771.607 113.684C771.607 115.508 770.043 117.072 768.219 117.072C766.394 117.072 764.831 115.508 764.831 113.684C764.831 111.859 766.394 110.295 768.219 110.295C770.043 110.295 771.607 111.859 771.607 113.684Z" fill="#3B351A"/>
<path d="M768.74 113.684H767.698V639.14H768.74V113.684Z" fill="#3B351A"/>
<g opacity="0.62">
<path d="M829.209 126.716C829.209 128.54 827.646 130.104 825.821 130.104C823.997 130.104 822.433 128.54 822.433 126.716C822.433 124.891 823.997 123.328 825.821 123.328C827.646 123.328 829.209 124.891 829.209 126.716Z" fill="#3B351A"/>
<path d="M826.342 126.716H825.3V652.172H826.342V126.716Z" fill="#3B351A"/>
</g>
<path d="M484.9 -15.8558H483.858V509.6H484.9V-15.8558Z" fill="#3B351A"/>
<path d="M239.896 55.0391C239.896 57.6455 237.811 59.47 235.465 59.47C232.858 59.47 231.034 57.3849 231.034 55.0391C231.034 52.6933 233.119 50.6082 235.465 50.6082C237.811 50.3475 239.896 52.4327 239.896 55.0391Z" fill="#3B351A"/>
<path d="M236.247 55.0391H234.683V772.068H236.247V55.0391Z" fill="#3B351A"/>
<g opacity="0.62">
<path d="M260.226 -15.0739H258.662V701.955H260.226V-15.0739Z" fill="#3B351A"/>
</g>
<g opacity="0.62">
<path d="M555.534 -4.64814H553.97V712.381H555.534V-4.64814Z" fill="#3B351A"/>
</g>
<path d="M1122.69 64.9435C1125.14 64.9435 1127.12 62.9597 1127.12 60.5126C1127.12 58.0654 1125.14 56.0817 1122.69 56.0817C1120.25 56.0817 1118.26 58.0654 1118.26 60.5126C1118.26 62.9597 1120.25 64.9435 1122.69 64.9435Z" fill="#3B351A"/>
<path d="M1123.74 60.5126H1122.17V777.541H1123.74V60.5126Z" fill="#3B351A"/>
<g opacity="0.62">
<path d="M1348.67 13.5969C1348.67 16.2033 1346.59 18.0278 1344.24 18.0278C1341.63 18.0278 1339.81 15.9426 1339.81 13.5969C1339.81 11.2511 1341.89 9.16594 1344.24 9.16594C1346.85 9.16594 1348.67 11.2511 1348.67 13.5969Z" fill="#3B351A"/>
<path d="M1345.02 13.5969H1343.46V730.626H1345.02V13.5969Z" fill="#3B351A"/>
</g>
<path d="M1247.54 262.511C1247.54 263.814 1246.5 264.857 1245.2 264.857C1243.89 264.857 1242.85 263.814 1242.85 262.511C1242.85 261.208 1243.89 260.165 1245.2 260.165C1246.5 260.165 1247.54 261.208 1247.54 262.511Z" fill="#3B351A"/>
<path d="M1245.46 262.511H1244.67V634.709H1245.46V262.511Z" fill="#3B351A"/>
<g opacity="0.62">
<path d="M1289.77 279.974C1289.77 281.277 1288.72 282.32 1287.42 282.32C1286.12 282.32 1285.07 281.277 1285.07 279.974C1285.07 278.671 1286.12 277.628 1287.42 277.628C1288.72 277.889 1289.77 278.931 1289.77 279.974Z" fill="#3B351A"/>
<path d="M1287.68 279.974H1286.9V652.172H1287.68V279.974Z" fill="#3B351A"/>
</g>
<path d="M1258.75 270.33C1258.75 271.633 1257.71 272.676 1256.4 272.676C1255.1 272.676 1254.06 271.633 1254.06 270.33C1254.06 269.027 1255.1 267.984 1256.4 267.984C1257.71 267.984 1258.75 269.027 1258.75 270.33Z" fill="#3B351A"/>
<path d="M1256.66 270.33H1255.88V657.124H1256.66V270.33Z" fill="#3B351A"/>
<g opacity="0.62">
<path d="M1271.78 232.798C1271.78 234.101 1270.74 235.143 1269.44 235.143C1268.13 235.143 1267.09 234.101 1267.09 232.798C1267.09 231.494 1268.13 230.452 1269.44 230.452C1270.48 230.191 1271.78 231.234 1271.78 232.798Z" fill="#3B351A"/>
<path d="M1269.7 232.798H1268.91V619.592H1269.7V232.798Z" fill="#3B351A"/>
</g>
<path d="M1329.38 244.787C1329.38 246.612 1327.82 248.176 1325.99 248.176C1324.17 248.176 1322.61 246.612 1322.61 244.787C1322.61 242.963 1324.17 241.399 1325.99 241.399C1327.82 241.399 1329.38 242.963 1329.38 244.787Z" fill="#3B351A"/>
<path d="M1326.78 244.787H1325.73V770.243H1326.78V244.787Z" fill="#3B351A"/>
<path d="M1140.42 158.514C1140.42 160.339 1139.11 161.642 1137.29 161.642C1135.46 161.642 1134.16 160.339 1134.16 158.514C1134.16 156.69 1135.46 155.387 1137.29 155.387C1139.11 155.387 1140.42 156.95 1140.42 158.514Z" fill="#3B351A"/>
<path d="M1137.81 158.514H1136.77V654.518H1137.81V158.514Z" fill="#3B351A"/>
<path d="M1193.59 185.1C1195.32 185.1 1196.72 183.7 1196.72 181.972C1196.72 180.245 1195.32 178.844 1193.59 178.844C1191.86 178.844 1190.46 180.245 1190.46 181.972C1190.46 183.7 1191.86 185.1 1193.59 185.1Z" fill="#3B351A"/>
<path d="M1194.11 181.972H1193.07V677.976H1194.11V181.972Z" fill="#3B351A"/>
<path d="M1155.27 169.201C1155.27 171.025 1153.71 172.328 1152.15 172.328C1150.58 172.328 1149.02 170.765 1149.02 169.201C1149.02 167.376 1150.58 166.073 1152.15 166.073C1153.71 166.073 1155.27 167.376 1155.27 169.201Z" fill="#3B351A"/>
<path d="M1152.67 169.201H1151.62V684.752H1152.67V169.201Z" fill="#3B351A"/>
<path d="M1172.48 118.897C1172.48 120.721 1170.91 122.024 1169.35 122.024C1167.78 122.024 1166.22 120.46 1166.22 118.897C1166.22 117.072 1167.78 115.769 1169.35 115.769C1170.91 115.769 1172.48 117.072 1172.48 118.897Z" fill="#3B351A"/>
<path d="M1169.87 118.897H1168.83V634.448H1169.87V118.897Z" fill="#3B351A"/>
<path d="M1249.63 135.056C1249.63 137.402 1247.54 139.487 1245.2 139.487C1242.85 139.487 1240.76 137.402 1240.76 135.056C1240.76 132.711 1242.85 130.626 1245.2 130.626C1247.54 130.626 1249.63 132.711 1249.63 135.056Z" fill="#3B351A"/>
<path d="M1245.98 135.056H1244.41V835.404H1245.98V135.056Z" fill="#3B351A"/>
<path d="M1140.42 158.514C1140.42 160.339 1139.11 161.642 1137.29 161.642C1135.46 161.642 1134.16 160.339 1134.16 158.514C1134.16 156.69 1135.46 155.387 1137.29 155.387C1139.11 155.387 1140.42 156.95 1140.42 158.514Z" fill="#3B351A"/>
<path d="M1137.81 158.514H1136.77V654.518H1137.81V158.514Z" fill="#3B351A"/>
<path d="M1193.59 185.1C1195.32 185.1 1196.72 183.7 1196.72 181.972C1196.72 180.245 1195.32 178.844 1193.59 178.844C1191.86 178.844 1190.46 180.245 1190.46 181.972C1190.46 183.7 1191.86 185.1 1193.59 185.1Z" fill="#3B351A"/>
<path d="M1194.11 181.972H1193.07V677.976H1194.11V181.972Z" fill="#3B351A"/>
<path d="M1155.27 169.201C1155.27 171.025 1153.71 172.328 1152.15 172.328C1150.58 172.328 1149.02 170.765 1149.02 169.201C1149.02 167.376 1150.58 166.073 1152.15 166.073C1153.71 166.073 1155.27 167.376 1155.27 169.201Z" fill="#3B351A"/>
<path d="M1152.67 169.201H1151.62V684.752H1152.67V169.201Z" fill="#3B351A"/>
<path d="M1172.48 118.897C1172.48 120.721 1170.91 122.024 1169.35 122.024C1167.78 122.024 1166.22 120.46 1166.22 118.897C1166.22 117.072 1167.78 115.769 1169.35 115.769C1170.91 115.769 1172.48 117.072 1172.48 118.897Z" fill="#3B351A"/>
<path d="M1169.87 118.897H1168.83V634.448H1169.87V118.897Z" fill="#3B351A"/>
<path d="M1249.63 135.056C1249.63 137.402 1247.54 139.487 1245.2 139.487C1242.85 139.487 1240.76 137.402 1240.76 135.056C1240.76 132.711 1242.85 130.626 1245.2 130.626C1247.54 130.626 1249.63 132.711 1249.63 135.056Z" fill="#3B351A"/>
<path d="M1245.98 135.056H1244.41V835.404H1245.98V135.056Z" fill="#3B351A"/>
<path d="M850.843 239.314C850.843 241.138 849.54 242.441 847.715 242.441C845.891 242.441 844.587 241.138 844.587 239.314C844.587 237.489 845.891 236.186 847.715 236.186C849.54 236.186 850.843 237.75 850.843 239.314Z" fill="#3B351A"/>
<path d="M848.236 239.314H847.194V735.317H848.236V239.314Z" fill="#3B351A"/>
<path d="M907.142 262.771C907.142 264.596 905.838 265.899 904.014 265.899C902.189 265.899 900.886 264.596 900.886 262.771C900.886 260.947 902.189 259.644 904.014 259.644C905.838 259.644 907.142 261.208 907.142 262.771Z" fill="#3B351A"/>
<path d="M904.796 262.771H903.753V758.775H904.796V262.771Z" fill="#3B351A"/>
<path d="M865.96 250C865.96 251.824 864.396 253.128 862.832 253.128C861.008 253.128 859.705 251.564 859.705 250C859.705 248.175 861.268 246.872 862.832 246.872C864.396 246.612 865.96 248.175 865.96 250Z" fill="#3B351A"/>
<path d="M863.093 250H862.05V765.552H863.093V250Z" fill="#3B351A"/>
<path d="M883.162 199.696C883.162 201.52 881.599 202.824 880.035 202.824C878.21 202.824 876.907 201.26 876.907 199.696C876.907 197.871 878.471 196.568 880.035 196.568C881.859 196.307 883.162 197.871 883.162 199.696Z" fill="#3B351A"/>
<path d="M880.556 199.696H879.513V715.248H880.556V199.696Z" fill="#3B351A"/>
<path d="M960.313 215.856C960.313 218.202 958.228 220.287 955.882 220.287C953.536 220.287 951.451 218.202 951.451 215.856C951.451 213.51 953.536 211.425 955.882 211.425C958.228 211.425 960.313 213.51 960.313 215.856Z" fill="#3B351A"/>
<path d="M956.664 215.856H955.1V812.467H956.664V215.856Z" fill="#3B351A"/>
<path d="M850.843 239.314C850.843 241.138 849.54 242.441 847.715 242.441C845.891 242.441 844.587 241.138 844.587 239.314C844.587 237.489 845.891 236.186 847.715 236.186C849.54 236.186 850.843 237.75 850.843 239.314Z" fill="#3B351A"/>
<path d="M848.236 239.314H847.194V735.317H848.236V239.314Z" fill="#3B351A"/>
<path d="M907.142 262.771C907.142 264.596 905.838 265.899 904.014 265.899C902.189 265.899 900.886 264.596 900.886 262.771C900.886 260.947 902.189 259.644 904.014 259.644C905.838 259.644 907.142 261.208 907.142 262.771Z" fill="#3B351A"/>
<path d="M904.796 262.771H903.753V758.775H904.796V262.771Z" fill="#3B351A"/>
<path d="M865.96 250C865.96 251.824 864.396 253.128 862.832 253.128C861.008 253.128 859.705 251.564 859.705 250C859.705 248.175 861.268 246.872 862.832 246.872C864.396 246.612 865.96 248.175 865.96 250Z" fill="#3B351A"/>
<path d="M863.093 250H862.05V765.552H863.093V250Z" fill="#3B351A"/>
<path d="M883.162 199.696C883.162 201.52 881.599 202.824 880.035 202.824C878.21 202.824 876.907 201.26 876.907 199.696C876.907 197.871 878.471 196.568 880.035 196.568C881.859 196.307 883.162 197.871 883.162 199.696Z" fill="#3B351A"/>
<path d="M880.556 199.696H879.513V715.248H880.556V199.696Z" fill="#3B351A"/>
<path d="M960.313 215.856C960.313 218.202 958.228 220.287 955.882 220.287C953.536 220.287 951.451 218.202 951.451 215.856C951.451 213.51 953.536 211.425 955.882 211.425C958.228 211.425 960.313 213.51 960.313 215.856Z" fill="#3B351A"/>
<path d="M956.664 215.856H955.1V812.467H956.664V215.856Z" fill="#3B351A"/>
<g opacity="0.62">
<path d="M642.068 227.063C642.068 228.627 640.765 229.67 639.461 229.67C637.897 229.67 636.855 228.367 636.855 227.063C636.855 225.76 638.158 224.457 639.461 224.457C640.765 224.196 642.068 225.5 642.068 227.063Z" fill="#3B351A"/>
<path d="M639.722 227.063H638.94V651.129H639.722V227.063Z" fill="#3B351A"/>
<path d="M690.287 246.872C690.287 248.436 688.983 249.479 687.68 249.479C686.116 249.479 685.074 248.176 685.074 246.872C685.074 245.308 686.377 244.266 687.68 244.266C688.983 244.266 690.287 245.569 690.287 246.872Z" fill="#3B351A"/>
<path d="M687.941 246.872H687.159V670.938H687.941V246.872Z" fill="#3B351A"/>
<path d="M652.233 238.792C653.816 238.792 655.1 237.509 655.1 235.925C655.1 234.342 653.816 233.058 652.233 233.058C650.649 233.058 649.366 234.342 649.366 235.925C649.366 237.509 650.649 238.792 652.233 238.792Z" fill="#3B351A"/>
<path d="M652.754 235.925H651.711V676.933H652.754V235.925Z" fill="#3B351A"/>
<path d="M666.829 195.786C668.412 195.786 669.696 194.503 669.696 192.919C669.696 191.336 668.412 190.052 666.829 190.052C665.246 190.052 663.962 191.336 663.962 192.919C663.962 194.503 665.246 195.786 666.829 195.786Z" fill="#3B351A"/>
<path d="M667.35 192.919H666.308V633.927H667.35V192.919Z" fill="#3B351A"/>
<path d="M731.729 210.382C733.744 210.382 735.378 208.749 735.378 206.733C735.378 204.718 733.744 203.084 731.729 203.084C729.714 203.084 728.08 204.718 728.08 206.733C728.08 208.749 729.714 210.382 731.729 210.382Z" fill="#3B351A"/>
<path d="M732.511 206.733H731.207V805.691H732.511V206.733Z" fill="#3B351A"/>
<path d="M642.068 227.063C642.068 228.627 640.765 229.67 639.461 229.67C637.897 229.67 636.855 228.367 636.855 227.063C636.855 225.76 638.158 224.457 639.461 224.457C640.765 224.196 642.068 225.5 642.068 227.063Z" fill="#3B351A"/>
<path d="M639.722 227.063H638.94V651.129H639.722V227.063Z" fill="#3B351A"/>
<path d="M690.287 246.872C690.287 248.436 688.983 249.479 687.68 249.479C686.116 249.479 685.074 248.176 685.074 246.872C685.074 245.308 686.377 244.266 687.68 244.266C688.983 244.266 690.287 245.569 690.287 246.872Z" fill="#3B351A"/>
<path d="M687.941 246.872H687.159V670.938H687.941V246.872Z" fill="#3B351A"/>
<path d="M652.233 238.792C653.816 238.792 655.1 237.509 655.1 235.925C655.1 234.342 653.816 233.058 652.233 233.058C650.649 233.058 649.366 234.342 649.366 235.925C649.366 237.509 650.649 238.792 652.233 238.792Z" fill="#3B351A"/>
<path d="M652.754 235.925H651.711V676.933H652.754V235.925Z" fill="#3B351A"/>
<path d="M666.829 195.786C668.412 195.786 669.696 194.503 669.696 192.919C669.696 191.336 668.412 190.052 666.829 190.052C665.246 190.052 663.962 191.336 663.962 192.919C663.962 194.503 665.246 195.786 666.829 195.786Z" fill="#3B351A"/>
<path d="M667.35 192.919H666.308V633.927H667.35V192.919Z" fill="#3B351A"/>
<path d="M731.729 210.382C733.744 210.382 735.378 208.749 735.378 206.733C735.378 204.718 733.744 203.084 731.729 203.084C729.714 203.084 728.08 204.718 728.08 206.733C728.08 208.749 729.714 210.382 731.729 210.382Z" fill="#3B351A"/>
<path d="M732.511 206.733H731.207V805.691H732.511V206.733Z" fill="#3B351A"/>
</g>
<g opacity="0.62">
<path d="M73.6056 252.346C75.333 252.346 76.7333 250.945 76.7333 249.218C76.7333 247.491 75.333 246.09 73.6056 246.09C71.8782 246.09 70.4779 247.491 70.4779 249.218C70.4779 250.945 71.8782 252.346 73.6056 252.346Z" fill="#3B351A"/>
<path d="M74.1269 249.218H73.0843V745.221H74.1269V249.218Z" fill="#3B351A"/>
<path d="M129.904 275.543C131.632 275.543 133.032 274.143 133.032 272.415C133.032 270.688 131.632 269.288 129.904 269.288C128.177 269.288 126.777 270.688 126.777 272.415C126.777 274.143 128.177 275.543 129.904 275.543Z" fill="#3B351A"/>
<path d="M130.426 272.415H129.383V768.419H130.426V272.415Z" fill="#3B351A"/>
<path d="M91.8506 259.644C91.8506 261.468 90.2867 262.771 88.7229 262.771C86.8984 262.771 85.5952 261.208 85.5952 259.644C85.5952 257.819 87.159 256.516 88.7229 256.516C90.2867 256.516 91.8506 257.819 91.8506 259.644Z" fill="#3B351A"/>
<path d="M88.9835 259.644H87.9409V775.195H88.9835V259.644Z" fill="#3B351A"/>
<path d="M109.053 209.34C109.053 211.164 107.489 212.467 105.925 212.467C104.101 212.467 102.798 210.904 102.798 209.34C102.798 207.515 104.362 206.212 105.925 206.212C107.489 206.212 109.053 207.515 109.053 209.34Z" fill="#3B351A"/>
<path d="M106.447 209.34H105.404V724.891H106.447V209.34Z" fill="#3B351A"/>
<path d="M181.772 85.0131C184.22 85.0131 186.203 83.0292 186.203 80.5821C186.203 78.135 184.22 76.1512 181.772 76.1512C179.325 76.1512 177.341 78.135 177.341 80.5821C177.341 83.0292 179.325 85.0131 181.772 85.0131Z" fill="#3B351A"/>
<path d="M182.554 80.5821H180.991V780.93H182.554V80.5821Z" fill="#3B351A"/>
<path d="M73.6056 252.346C75.333 252.346 76.7333 250.945 76.7333 249.218C76.7333 247.491 75.333 246.09 73.6056 246.09C71.8782 246.09 70.4779 247.491 70.4779 249.218C70.4779 250.945 71.8782 252.346 73.6056 252.346Z" fill="#3B351A"/>
<path d="M74.1269 249.218H73.0843V745.221H74.1269V249.218Z" fill="#3B351A"/>
<path d="M129.904 275.543C131.632 275.543 133.032 274.143 133.032 272.415C133.032 270.688 131.632 269.288 129.904 269.288C128.177 269.288 126.777 270.688 126.777 272.415C126.777 274.143 128.177 275.543 129.904 275.543Z" fill="#3B351A"/>
<path d="M130.426 272.415H129.383V768.419H130.426V272.415Z" fill="#3B351A"/>
<path d="M91.8506 259.644C91.8506 261.468 90.2867 262.771 88.7229 262.771C86.8984 262.771 85.5952 261.208 85.5952 259.644C85.5952 257.819 87.159 256.516 88.7229 256.516C90.2867 256.516 91.8506 257.819 91.8506 259.644Z" fill="#3B351A"/>
<path d="M88.9835 259.644H87.9409V775.195H88.9835V259.644Z" fill="#3B351A"/>
<path d="M109.053 209.34C109.053 211.164 107.489 212.467 105.925 212.467C104.101 212.467 102.798 210.904 102.798 209.34C102.798 207.515 104.362 206.212 105.925 206.212C107.489 206.212 109.053 207.515 109.053 209.34Z" fill="#3B351A"/>
<path d="M106.447 209.34H105.404V724.891H106.447V209.34Z" fill="#3B351A"/>
<path d="M181.772 76.4118C184.22 76.4118 186.203 74.428 186.203 71.9809C186.203 69.5338 184.22 67.5499 181.772 67.5499C179.325 67.5499 177.341 69.5338 177.341 71.9809C177.341 74.428 179.325 76.4118 181.772 76.4118Z" fill="#3B351A"/>
<path d="M182.554 71.9809H180.991V772.328H182.554V71.9809Z" fill="#3B351A"/>
</g>
<path d="M334.509 134.535C334.509 136.36 333.206 137.663 331.381 137.663C329.557 137.663 328.254 136.36 328.254 134.535C328.254 132.711 329.557 131.407 331.381 131.407C332.945 131.407 334.509 132.711 334.509 134.535Z" fill="#3B351A"/>
<path d="M331.903 134.535H330.86V630.539H331.903V134.535Z" fill="#3B351A"/>
<path d="M390.808 157.732C390.808 159.557 389.505 160.86 387.68 160.86C385.856 160.86 384.553 159.557 384.553 157.732C384.553 155.908 385.856 154.605 387.68 154.605C389.244 154.865 390.808 156.169 390.808 157.732Z" fill="#3B351A"/>
<path d="M388.202 157.732H387.159V653.736H388.202V157.732Z" fill="#3B351A"/>
<path d="M349.366 144.961C349.366 146.785 347.802 148.089 346.238 148.089C344.414 148.089 343.11 146.525 343.11 144.961C343.11 143.136 344.674 141.833 346.238 141.833C347.802 141.833 349.366 143.136 349.366 144.961Z" fill="#3B351A"/>
<path d="M346.759 144.961H345.717V660.513H346.759V144.961Z" fill="#3B351A"/>
<path d="M366.568 94.6568C366.568 96.4813 365.004 97.7845 363.44 97.7845C361.616 97.7845 360.313 96.2207 360.313 94.6568C360.313 92.8323 361.877 91.5291 363.44 91.5291C365.265 91.5291 366.568 92.8323 366.568 94.6568Z" fill="#3B351A"/>
<path d="M363.962 94.6568H362.919V610.209H363.962V94.6568Z" fill="#3B351A"/>
<path d="M440.07 -34.1008H438.506V666.247H440.07V-34.1008Z" fill="#3B351A"/>
<path d="M334.509 134.535C334.509 136.36 333.206 137.663 331.381 137.663C329.557 137.663 328.254 136.36 328.254 134.535C328.254 132.711 329.557 131.407 331.381 131.407C332.945 131.407 334.509 132.711 334.509 134.535Z" fill="#3B351A"/>
<path d="M331.903 134.535H330.86V630.539H331.903V134.535Z" fill="#3B351A"/>
<path d="M390.808 157.732C390.808 159.557 389.505 160.86 387.68 160.86C385.856 160.86 384.553 159.557 384.553 157.732C384.553 155.908 385.856 154.605 387.68 154.605C389.244 154.865 390.808 156.169 390.808 157.732Z" fill="#3B351A"/>
<path d="M388.202 157.732H387.159V653.736H388.202V157.732Z" fill="#3B351A"/>
<path d="M349.366 144.961C349.366 146.785 347.802 148.089 346.238 148.089C344.414 148.089 343.11 146.525 343.11 144.961C343.11 143.136 344.674 141.833 346.238 141.833C347.802 141.833 349.366 143.136 349.366 144.961Z" fill="#3B351A"/>
<path d="M346.759 144.961H345.717V660.513H346.759V144.961Z" fill="#3B351A"/>
<path d="M366.568 94.6568C366.568 96.4813 365.004 97.7845 363.44 97.7845C361.616 97.7845 360.313 96.2207 360.313 94.6568C360.313 92.8323 361.877 91.5291 363.44 91.5291C365.265 91.5291 366.568 92.8323 366.568 94.6568Z" fill="#3B351A"/>
<path d="M363.962 94.6568H362.919V610.209H363.962V94.6568Z" fill="#3B351A"/>
<path d="M440.07 -42.702H438.506V657.646H440.07V-42.702Z" fill="#3B351A"/>
<g opacity="0.62">
<path d="M547.194 210.904C547.194 212.207 546.151 213.51 544.587 213.51C543.284 213.51 541.981 212.467 541.981 210.904C541.981 209.6 543.024 208.297 544.587 208.297C545.891 208.297 547.194 209.6 547.194 210.904Z" fill="#3B351A"/>
<path d="M544.848 210.904H544.066V624.023H544.848V210.904Z" fill="#3B351A"/>
<path d="M594.11 230.452C594.11 231.755 593.067 233.058 591.503 233.058C589.939 233.058 588.897 232.016 588.897 230.452C588.897 229.149 589.939 227.845 591.503 227.845C593.067 227.845 594.11 228.888 594.11 230.452Z" fill="#3B351A"/>
<path d="M591.764 230.452H590.982V643.571H591.764V230.452Z" fill="#3B351A"/>
<path d="M559.705 219.765C559.705 221.329 558.401 222.372 557.098 222.372C555.795 222.372 554.492 221.069 554.492 219.765C554.492 218.462 555.795 217.159 557.098 217.159C558.401 217.159 559.705 218.202 559.705 219.765Z" fill="#3B351A"/>
<path d="M557.359 219.765H556.577V649.044H557.359V219.765Z" fill="#3B351A"/>
<path d="M574.04 177.802C574.04 179.366 572.737 180.408 571.434 180.408C570.13 180.408 568.827 179.105 568.827 177.802C568.827 176.499 570.13 175.195 571.434 175.195C572.737 175.195 574.04 176.238 574.04 177.802Z" fill="#3B351A"/>
<path d="M571.694 177.802H570.912V607.081H571.694V177.802Z" fill="#3B351A"/>
<path d="M638.158 70.6777C638.158 72.7628 636.594 74.3266 634.509 74.3266C632.424 74.3266 630.86 72.7628 630.86 70.6777C630.86 68.5925 632.424 67.0286 634.509 67.0286C636.594 67.0286 638.158 68.5925 638.158 70.6777Z" fill="#3B351A"/>
<path d="M635.291 70.6776H633.988V653.996H635.291V70.6776Z" fill="#3B351A"/>
<path d="M547.194 210.904C547.194 212.207 546.151 213.51 544.587 213.51C543.284 213.51 541.981 212.467 541.981 210.904C541.981 209.6 543.024 208.297 544.587 208.297C545.891 208.297 547.194 209.6 547.194 210.904Z" fill="#3B351A"/>
<path d="M544.848 210.904H544.066V624.023H544.848V210.904Z" fill="#3B351A"/>
<path d="M594.11 230.452C594.11 231.755 593.067 233.058 591.503 233.058C589.939 233.058 588.897 232.016 588.897 230.452C588.897 229.149 589.939 227.845 591.503 227.845C593.067 227.845 594.11 228.888 594.11 230.452Z" fill="#3B351A"/>
<path d="M591.764 230.452H590.982V643.571H591.764V230.452Z" fill="#3B351A"/>
<path d="M559.705 219.765C559.705 221.329 558.401 222.372 557.098 222.372C555.795 222.372 554.492 221.069 554.492 219.765C554.492 218.462 555.795 217.159 557.098 217.159C558.401 217.159 559.705 218.202 559.705 219.765Z" fill="#3B351A"/>
<path d="M557.359 219.765H556.577V649.044H557.359V219.765Z" fill="#3B351A"/>
<path d="M574.04 177.802C574.04 179.366 572.737 180.408 571.434 180.408C570.13 180.408 568.827 179.105 568.827 177.802C568.827 176.499 570.13 175.195 571.434 175.195C572.737 175.195 574.04 176.238 574.04 177.802Z" fill="#3B351A"/>
<path d="M571.694 177.802H570.912V607.081H571.694V177.802Z" fill="#3B351A"/>
<path d="M638.158 63.3796C638.158 65.4648 636.594 67.0286 634.509 67.0286C632.424 67.0286 630.86 65.4648 630.86 63.3796C630.86 61.2945 632.424 59.7306 634.509 59.7306C636.594 59.7306 638.158 61.2945 638.158 63.3796Z" fill="#3B351A"/>
<path d="M635.291 63.3797H633.988V646.699H635.291V63.3797Z" fill="#3B351A"/>
</g>
<path d="M194.283 273.197C196.011 273.197 197.411 271.797 197.411 270.07C197.411 268.342 196.011 266.942 194.283 266.942C192.556 266.942 191.156 268.342 191.156 270.07C191.156 271.797 192.556 273.197 194.283 273.197Z" fill="#3B351A"/>
<path d="M194.804 270.07H193.762V766.073H194.804V270.07Z" fill="#3B351A"/>
<path d="M253.71 293.267C253.71 295.091 252.407 296.395 250.582 296.395C248.758 296.395 247.454 295.091 247.454 293.267C247.454 291.442 248.758 290.139 250.582 290.139C252.146 290.4 253.71 291.703 253.71 293.267Z" fill="#3B351A"/>
<path d="M251.103 293.267H250.061V789.27H251.103V293.267Z" fill="#3B351A"/>
<path d="M212.268 280.495C212.268 282.32 210.704 283.623 209.14 283.623C207.315 283.623 206.012 282.059 206.012 280.495C206.012 278.671 207.576 277.367 209.14 277.367C210.704 277.367 212.268 278.671 212.268 280.495Z" fill="#3B351A"/>
<path d="M209.661 280.495H208.619V796.047H209.661V280.495Z" fill="#3B351A"/>
<path d="M229.47 230.191C229.47 232.016 227.906 233.319 226.342 233.319C224.518 233.319 223.215 231.755 223.215 230.191C223.215 228.367 224.778 227.063 226.342 227.063C228.167 227.063 229.47 228.367 229.47 230.191Z" fill="#3B351A"/>
<path d="M226.864 230.191H225.821V745.743H226.864V230.191Z" fill="#3B351A"/>
<path d="M302.189 105.864C304.636 105.864 306.62 103.881 306.62 101.434C306.62 98.9864 304.636 97.0026 302.189 97.0026C299.742 97.0026 297.758 98.9864 297.758 101.434C297.758 103.881 299.742 105.864 302.189 105.864Z" fill="#3B351A"/>
<path d="M302.971 101.434H301.407V801.781H302.971V101.434Z" fill="#3B351A"/>
<path d="M194.283 273.197C196.011 273.197 197.411 271.797 197.411 270.07C197.411 268.342 196.011 266.942 194.283 266.942C192.556 266.942 191.156 268.342 191.156 270.07C191.156 271.797 192.556 273.197 194.283 273.197Z" fill="#3B351A"/>
<path d="M194.804 270.07H193.762V766.073H194.804V270.07Z" fill="#3B351A"/>
<path d="M253.71 293.267C253.71 295.091 252.407 296.395 250.582 296.395C248.758 296.395 247.454 295.091 247.454 293.267C247.454 291.442 248.758 290.139 250.582 290.139C252.146 290.4 253.71 291.703 253.71 293.267Z" fill="#3B351A"/>
<path d="M251.103 293.267H250.061V789.27H251.103V293.267Z" fill="#3B351A"/>
<path d="M212.268 280.495C212.268 282.32 210.704 283.623 209.14 283.623C207.315 283.623 206.012 282.059 206.012 280.495C206.012 278.671 207.576 277.367 209.14 277.367C210.704 277.367 212.268 278.671 212.268 280.495Z" fill="#3B351A"/>
<path d="M209.661 280.495H208.619V796.047H209.661V280.495Z" fill="#3B351A"/>
<path d="M229.47 230.191C229.47 232.016 227.906 233.319 226.342 233.319C224.518 233.319 223.215 231.755 223.215 230.191C223.215 228.367 224.778 227.063 226.342 227.063C228.167 227.063 229.47 228.367 229.47 230.191Z" fill="#3B351A"/>
<path d="M226.864 230.191H225.821V745.743H226.864V230.191Z" fill="#3B351A"/>
<path d="M302.189 97.2633C304.636 97.2633 306.62 95.2795 306.62 92.8323C306.62 90.3852 304.636 88.4014 302.189 88.4014C299.742 88.4014 297.758 90.3852 297.758 92.8323C297.758 95.2795 299.742 97.2633 302.189 97.2633Z" fill="#3B351A"/>
<path d="M302.971 92.8323H301.407V793.18H302.971V92.8323Z" fill="#3B351A"/>
<g opacity="0.62">
<path d="M411.92 210.904C411.92 212.728 410.617 214.031 408.792 214.031C406.968 214.031 405.665 212.728 405.665 210.904C405.665 209.079 406.968 207.776 408.792 207.776C410.617 207.776 411.92 209.34 411.92 210.904Z" fill="#3B351A"/>
<path d="M409.314 210.904H408.271V706.907H409.314V210.904Z" fill="#3B351A"/>
<path d="M465.091 237.489C466.819 237.489 468.219 236.089 468.219 234.361C468.219 232.634 466.819 231.234 465.091 231.234C463.364 231.234 461.964 232.634 461.964 234.361C461.964 236.089 463.364 237.489 465.091 237.489Z" fill="#3B351A"/>
<path d="M465.613 234.361H464.57V730.365H465.613V234.361Z" fill="#3B351A"/>
<path d="M426.777 221.59C426.777 223.414 425.213 224.718 423.649 224.718C422.085 224.718 420.521 223.154 420.521 221.59C420.521 220.026 422.085 218.462 423.649 218.462C425.213 218.462 426.777 219.765 426.777 221.59Z" fill="#3B351A"/>
<path d="M424.17 221.59H423.128V737.142H424.17V221.59Z" fill="#3B351A"/>
<path d="M444.24 171.286C444.24 173.11 442.676 174.414 441.112 174.414C439.288 174.414 437.984 172.85 437.984 171.286C437.984 169.461 439.548 168.158 441.112 168.158C442.676 167.898 444.24 169.461 444.24 171.286Z" fill="#3B351A"/>
<path d="M441.373 171.286H440.33V686.838H441.373V171.286Z" fill="#3B351A"/>
<path d="M521.13 42.5282C521.13 44.874 519.044 46.9592 516.699 46.9592C514.353 46.9592 512.268 44.874 512.268 42.5282C512.268 40.1825 514.353 38.0973 516.699 38.0973C519.305 38.0973 521.13 40.1825 521.13 42.5282Z" fill="#3B351A"/>
<path d="M517.741 42.5282H516.177V742.876H517.741V42.5282Z" fill="#3B351A"/>
<path d="M411.92 210.904C411.92 212.728 410.617 214.031 408.792 214.031C406.968 214.031 405.665 212.728 405.665 210.904C405.665 209.079 406.968 207.776 408.792 207.776C410.617 207.776 411.92 209.34 411.92 210.904Z" fill="#3B351A"/>
<path d="M409.314 210.904H408.271V706.907H409.314V210.904Z" fill="#3B351A"/>
<path d="M465.091 237.489C466.819 237.489 468.219 236.089 468.219 234.361C468.219 232.634 466.819 231.234 465.091 231.234C463.364 231.234 461.964 232.634 461.964 234.361C461.964 236.089 463.364 237.489 465.091 237.489Z" fill="#3B351A"/>
<path d="M465.613 234.361H464.57V730.365H465.613V234.361Z" fill="#3B351A"/>
<path d="M426.777 221.59C426.777 223.414 425.213 224.718 423.649 224.718C422.085 224.718 420.521 223.154 420.521 221.59C420.521 220.026 422.085 218.462 423.649 218.462C425.213 218.462 426.777 219.765 426.777 221.59Z" fill="#3B351A"/>
<path d="M424.17 221.59H423.128V737.142H424.17V221.59Z" fill="#3B351A"/>
<path d="M444.24 171.286C444.24 173.11 442.676 174.414 441.112 174.414C439.288 174.414 437.984 172.85 437.984 171.286C437.984 169.461 439.548 168.158 441.112 168.158C442.676 167.898 444.24 169.461 444.24 171.286Z" fill="#3B351A"/>
<path d="M441.373 171.286H440.33V686.838H441.373V171.286Z" fill="#3B351A"/>
<path d="M521.13 33.6664C521.13 36.0122 519.044 38.0973 516.699 38.0973C514.353 38.0973 512.268 36.0122 512.268 33.6664C512.268 31.3206 514.353 29.2354 516.699 29.2354C519.305 29.2354 521.13 31.3206 521.13 33.6664Z" fill="#3B351A"/>
<path d="M517.741 33.6664H516.177V734.014H517.741V33.6664Z" fill="#3B351A"/>
</g>
<path d="M1165.96 -45.5691H1164.4V644.353H1165.96V-45.5691Z" fill="#3B351A"/>
<path d="M581.338 40.1824C581.338 42.5282 579.514 44.6134 576.907 44.6134C574.561 44.6134 572.476 42.7888 572.476 40.1824C572.476 37.8366 574.301 35.7515 576.907 35.7515C579.253 36.0121 581.338 37.8366 581.338 40.1824Z" fill="#3B351A"/>
<path d="M577.95 40.1824H576.386V730.104H577.95V40.1824Z" fill="#3B351A"/>
<path d="M659.531 72.7628C659.531 75.1086 657.706 77.1938 655.1 77.1938C652.754 77.1938 650.669 75.3692 650.669 72.7628C650.669 70.417 652.494 68.3319 655.1 68.3319C657.706 68.5925 659.531 70.417 659.531 72.7628Z" fill="#3B351A"/>
<path d="M656.143 72.7628H654.579V762.685H656.143V72.7628Z" fill="#3B351A"/>
<g opacity="0.62">
<path d="M973.866 -19.7655H972.302V670.156H973.866V-19.7655Z" fill="#3B351A"/>
</g>
<g opacity="0.62">
<path d="M1133.9 113.684C1133.9 115.508 1132.34 117.072 1130.51 117.072C1128.69 117.072 1127.12 115.508 1127.12 113.684C1127.12 111.859 1128.69 110.295 1130.51 110.295C1132.34 110.295 1133.9 111.859 1133.9 113.684Z" fill="#3B351A"/>
<path d="M1131.03 113.684H1129.99V639.14H1131.03V113.684Z" fill="#3B351A"/>
</g>
<g opacity="0.62">
<path d="M1191.5 126.716C1191.5 128.54 1189.94 130.104 1188.11 130.104C1186.29 130.104 1184.73 128.54 1184.73 126.716C1184.73 124.891 1186.29 123.328 1188.11 123.328C1189.94 123.328 1191.5 124.891 1191.5 126.716Z" fill="#3B351A"/>
<path d="M1188.64 126.716H1187.59V652.172H1188.64V126.716Z" fill="#3B351A"/>
</g>
<path d="M847.194 -15.8558H846.151V509.6H847.194V-15.8558Z" fill="#3B351A"/>
<path d="M602.189 55.0391C602.189 57.6455 600.104 59.47 597.759 59.47C595.152 59.47 593.328 57.3849 593.328 55.0391C593.328 52.6933 595.413 50.6082 597.759 50.6082C600.104 50.3475 602.189 52.4327 602.189 55.0391Z" fill="#3B351A"/>
<path d="M598.541 55.0391H596.977V772.068H598.541V55.0391Z" fill="#3B351A"/>
<g opacity="0.62">
<path d="M622.52 -15.0739H620.956V701.955H622.52V-15.0739Z" fill="#3B351A"/>
</g>
<g opacity="0.62">
<path d="M917.828 -4.64815H916.264V712.381H917.828V-4.64815Z" fill="#3B351A"/>
</g>
<path d="M1394.02 64.9435C1396.47 64.9435 1398.45 62.9597 1398.45 60.5126C1398.45 58.0654 1396.47 56.0817 1394.02 56.0817C1391.58 56.0817 1389.59 58.0654 1389.59 60.5126C1389.59 62.9597 1391.58 64.9435 1394.02 64.9435Z" fill="#3B351A"/>
<path d="M1394.8 60.5126H1393.24V777.541H1394.8V60.5126Z" fill="#3B351A"/>
<path d="M1411.49 158.514C1411.49 160.339 1410.18 161.642 1408.36 161.642C1406.53 161.642 1405.23 160.339 1405.23 158.514C1405.23 156.69 1406.53 155.387 1408.36 155.387C1410.18 155.387 1411.49 156.95 1411.49 158.514Z" fill="#3B351A"/>
<path d="M1408.88 158.514H1407.84V654.518H1408.88V158.514Z" fill="#3B351A"/>
<path d="M1426.6 169.201C1426.6 171.025 1425.04 172.328 1423.48 172.328C1421.91 172.328 1420.35 170.765 1420.35 169.201C1420.35 167.376 1421.91 166.073 1423.48 166.073C1425.04 166.073 1426.6 167.376 1426.6 169.201Z" fill="#3B351A"/>
<path d="M1423.74 169.201H1422.69V684.752H1423.74V169.201Z" fill="#3B351A"/>
<path d="M1443.81 118.897C1443.81 120.721 1442.24 122.024 1440.68 122.024C1439.11 122.024 1437.55 120.46 1437.55 118.897C1437.55 117.072 1439.11 115.769 1440.68 115.769C1442.24 115.769 1443.81 117.072 1443.81 118.897Z" fill="#3B351A"/>
<path d="M1440.94 118.897H1439.9V634.448H1440.94V118.897Z" fill="#3B351A"/>
<path d="M1411.49 158.514C1411.49 160.339 1410.18 161.642 1408.36 161.642C1406.53 161.642 1405.23 160.339 1405.23 158.514C1405.23 156.69 1406.53 155.387 1408.36 155.387C1410.18 155.387 1411.49 156.95 1411.49 158.514Z" fill="#3B351A"/>
<path d="M1408.88 158.514H1407.84V654.518H1408.88V158.514Z" fill="#3B351A"/>
<path d="M1426.6 169.201C1426.6 171.025 1425.04 172.328 1423.48 172.328C1421.91 172.328 1420.35 170.765 1420.35 169.201C1420.35 167.376 1421.91 166.073 1423.48 166.073C1425.04 166.073 1426.6 167.376 1426.6 169.201Z" fill="#3B351A"/>
<path d="M1423.74 169.201H1422.69V684.752H1423.74V169.201Z" fill="#3B351A"/>
<path d="M1443.81 118.897C1443.81 120.721 1442.24 122.024 1440.68 122.024C1439.11 122.024 1437.55 120.46 1437.55 118.897C1437.55 117.072 1439.11 115.769 1440.68 115.769C1442.24 115.769 1443.81 117.072 1443.81 118.897Z" fill="#3B351A"/>
<path d="M1440.94 118.897H1439.9V634.448H1440.94V118.897Z" fill="#3B351A"/>
<path d="M1213.14 239.314C1213.14 241.138 1211.83 242.441 1210.01 242.441C1208.18 242.441 1206.88 241.138 1206.88 239.314C1206.88 237.489 1208.18 236.186 1210.01 236.186C1211.83 236.186 1213.14 237.75 1213.14 239.314Z" fill="#3B351A"/>
<path d="M1210.79 239.314H1209.75V735.317H1210.79V239.314Z" fill="#3B351A"/>
<path d="M1266.57 265.899C1268.3 265.899 1269.7 264.499 1269.7 262.771C1269.7 261.044 1268.3 259.644 1266.57 259.644C1264.84 259.644 1263.44 261.044 1263.44 262.771C1263.44 264.499 1264.84 265.899 1266.57 265.899Z" fill="#3B351A"/>
<path d="M1267.09 262.771H1266.05V758.775H1267.09V262.771Z" fill="#3B351A"/>
<path d="M1228.25 250C1228.25 251.824 1226.69 253.128 1225.13 253.128C1223.56 253.128 1222 251.564 1222 250C1222 248.175 1223.56 246.872 1225.13 246.872C1226.69 246.872 1228.25 248.175 1228.25 250Z" fill="#3B351A"/>
<path d="M1225.39 250H1224.34V765.552H1225.39V250Z" fill="#3B351A"/>
<path d="M1245.46 199.696C1245.46 201.52 1243.89 202.824 1242.33 202.824C1240.5 202.824 1239.2 201.26 1239.2 199.696C1239.2 197.871 1240.76 196.568 1242.33 196.568C1244.15 196.307 1245.46 197.871 1245.46 199.696Z" fill="#3B351A"/>
<path d="M1242.85 199.696H1241.81V715.248H1242.85V199.696Z" fill="#3B351A"/>
<path d="M1322.61 215.856C1322.61 218.202 1320.52 220.287 1318.18 220.287C1315.83 220.287 1313.74 218.202 1313.74 215.856C1313.74 213.51 1315.83 211.425 1318.18 211.425C1320.52 211.425 1322.61 213.51 1322.61 215.856Z" fill="#3B351A"/>
<path d="M1318.96 215.856H1317.39V847.915H1318.96V215.856Z" fill="#3B351A"/>
<path d="M1213.14 239.314C1213.14 241.138 1211.83 242.441 1210.01 242.441C1208.18 242.441 1206.88 241.138 1206.88 239.314C1206.88 237.489 1208.18 236.186 1210.01 236.186C1211.83 236.186 1213.14 237.75 1213.14 239.314Z" fill="#3B351A"/>
<path d="M1210.79 239.314H1209.75V735.317H1210.79V239.314Z" fill="#3B351A"/>
<path d="M1266.57 265.899C1268.3 265.899 1269.7 264.499 1269.7 262.771C1269.7 261.044 1268.3 259.644 1266.57 259.644C1264.84 259.644 1263.44 261.044 1263.44 262.771C1263.44 264.499 1264.84 265.899 1266.57 265.899Z" fill="#3B351A"/>
<path d="M1267.09 262.771H1266.05V758.775H1267.09V262.771Z" fill="#3B351A"/>
<path d="M1228.25 250C1228.25 251.824 1226.69 253.128 1225.13 253.128C1223.56 253.128 1222 251.564 1222 250C1222 248.175 1223.56 246.872 1225.13 246.872C1226.69 246.872 1228.25 248.175 1228.25 250Z" fill="#3B351A"/>
<path d="M1225.39 250H1224.34V765.552H1225.39V250Z" fill="#3B351A"/>
<path d="M1245.46 199.696C1245.46 201.52 1243.89 202.824 1242.33 202.824C1240.5 202.824 1239.2 201.26 1239.2 199.696C1239.2 197.871 1240.76 196.568 1242.33 196.568C1244.15 196.307 1245.46 197.871 1245.46 199.696Z" fill="#3B351A"/>
<path d="M1242.85 199.696H1241.81V715.248H1242.85V199.696Z" fill="#3B351A"/>
<path d="M1322.61 215.856C1322.61 218.202 1320.52 220.287 1318.18 220.287C1315.83 220.287 1313.74 218.202 1313.74 215.856C1313.74 213.51 1315.83 211.425 1318.18 211.425C1320.52 211.425 1322.61 213.51 1322.61 215.856Z" fill="#3B351A"/>
<path d="M1318.96 215.856H1317.39V847.915H1318.96V215.856Z" fill="#3B351A"/>
<g opacity="0.62">
<path d="M1004.36 227.063C1004.36 228.627 1003.06 229.67 1001.75 229.67C1000.45 229.67 999.148 228.367 999.148 227.063C999.148 225.76 1000.45 224.457 1001.75 224.457C1003.06 224.457 1004.36 225.5 1004.36 227.063Z" fill="#3B351A"/>
<path d="M1002.02 227.063H1001.23V651.129H1002.02V227.063Z" fill="#3B351A"/>
<path d="M1049.97 249.479C1051.41 249.479 1052.58 248.312 1052.58 246.872C1052.58 245.433 1051.41 244.266 1049.97 244.266C1048.53 244.266 1047.37 245.433 1047.37 246.872C1047.37 248.312 1048.53 249.479 1049.97 249.479Z" fill="#3B351A"/>
<path d="M1050.23 246.872H1049.45V670.938H1050.23V246.872Z" fill="#3B351A"/>
<path d="M1014.53 238.792C1016.11 238.792 1017.39 237.509 1017.39 235.925C1017.39 234.342 1016.11 233.058 1014.53 233.058C1012.94 233.058 1011.66 234.342 1011.66 235.925C1011.66 237.509 1012.94 238.792 1014.53 238.792Z" fill="#3B351A"/>
<path d="M1015.05 235.925H1014.01V676.933H1015.05V235.925Z" fill="#3B351A"/>
<path d="M1029.12 195.786C1030.71 195.786 1031.99 194.503 1031.99 192.919C1031.99 191.336 1030.71 190.052 1029.12 190.052C1027.54 190.052 1026.26 191.336 1026.26 192.919C1026.26 194.503 1027.54 195.786 1029.12 195.786Z" fill="#3B351A"/>
<path d="M1029.9 192.919H1028.86V633.927H1029.9V192.919Z" fill="#3B351A"/>
<path d="M1094.02 210.382C1096.04 210.382 1097.67 208.749 1097.67 206.733C1097.67 204.718 1096.04 203.084 1094.02 203.084C1092.01 203.084 1090.37 204.718 1090.37 206.733C1090.37 208.749 1092.01 210.382 1094.02 210.382Z" fill="#3B351A"/>
<path d="M1094.8 206.733H1093.5V737.402H1094.8V206.733Z" fill="#3B351A"/>
<path d="M1004.36 227.063C1004.36 228.627 1003.06 229.67 1001.75 229.67C1000.45 229.67 999.148 228.367 999.148 227.063C999.148 225.76 1000.45 224.457 1001.75 224.457C1003.06 224.457 1004.36 225.5 1004.36 227.063Z" fill="#3B351A"/>
<path d="M1002.02 227.063H1001.23V651.129H1002.02V227.063Z" fill="#3B351A"/>
<path d="M1049.97 249.479C1051.41 249.479 1052.58 248.312 1052.58 246.872C1052.58 245.433 1051.41 244.266 1049.97 244.266C1048.53 244.266 1047.37 245.433 1047.37 246.872C1047.37 248.312 1048.53 249.479 1049.97 249.479Z" fill="#3B351A"/>
<path d="M1050.23 246.872H1049.45V670.938H1050.23V246.872Z" fill="#3B351A"/>
<path d="M1014.53 238.792C1016.11 238.792 1017.39 237.509 1017.39 235.925C1017.39 234.342 1016.11 233.058 1014.53 233.058C1012.94 233.058 1011.66 234.342 1011.66 235.925C1011.66 237.509 1012.94 238.792 1014.53 238.792Z" fill="#3B351A"/>
<path d="M1015.05 235.925H1014.01V676.933H1015.05V235.925Z" fill="#3B351A"/>
<path d="M1029.12 195.786C1030.71 195.786 1031.99 194.503 1031.99 192.919C1031.99 191.336 1030.71 190.052 1029.12 190.052C1027.54 190.052 1026.26 191.336 1026.26 192.919C1026.26 194.503 1027.54 195.786 1029.12 195.786Z" fill="#3B351A"/>
<path d="M1029.9 192.919H1028.86V633.927H1029.9V192.919Z" fill="#3B351A"/>
<path d="M1094.02 210.382C1096.04 210.382 1097.67 208.749 1097.67 206.733C1097.67 204.718 1096.04 203.084 1094.02 203.084C1092.01 203.084 1090.37 204.718 1090.37 206.733C1090.37 208.749 1092.01 210.382 1094.02 210.382Z" fill="#3B351A"/>
<path d="M1094.8 206.733H1093.5V737.402H1094.8V206.733Z" fill="#3B351A"/>
</g>
<path d="M439.027 249.218C439.027 251.043 437.724 252.346 435.899 252.346C434.075 252.346 432.771 251.043 432.771 249.218C432.771 247.394 434.075 246.09 435.899 246.09C437.724 246.09 439.027 247.394 439.027 249.218Z" fill="#3B351A"/>
<path d="M436.421 249.218H435.378V745.221H436.421V249.218Z" fill="#3B351A"/>
<path d="M495.326 272.415C495.326 274.24 494.023 275.543 492.198 275.543C490.374 275.543 489.07 274.24 489.07 272.415C489.07 270.591 490.374 269.288 492.198 269.288C494.023 269.548 495.326 270.851 495.326 272.415Z" fill="#3B351A"/>
<path d="M492.98 272.415H491.938V768.419H492.98V272.415Z" fill="#3B351A"/>
<path d="M454.144 259.644C454.144 261.468 452.58 262.771 451.016 262.771C449.192 262.771 447.889 261.208 447.889 259.644C447.889 257.819 449.453 256.516 451.016 256.516C452.58 256.516 454.144 257.819 454.144 259.644Z" fill="#3B351A"/>
<path d="M451.277 259.644H450.235V775.195H451.277V259.644Z" fill="#3B351A"/>
<path d="M471.347 209.34C471.347 211.164 469.783 212.467 468.219 212.467C466.394 212.467 465.091 210.904 465.091 209.34C465.091 207.515 466.655 206.212 468.219 206.212C470.043 206.212 471.347 207.515 471.347 209.34Z" fill="#3B351A"/>
<path d="M468.74 209.34H467.698V724.891H468.74V209.34Z" fill="#3B351A"/>
<path d="M544.066 85.0131C546.513 85.0131 548.497 83.0292 548.497 80.5821C548.497 78.135 546.513 76.1512 544.066 76.1512C541.619 76.1512 539.635 78.135 539.635 80.5821C539.635 83.0292 541.619 85.0131 544.066 85.0131Z" fill="#3B351A"/>
<path d="M544.848 80.5821H543.284V780.93H544.848V80.5821Z" fill="#3B351A"/>
<path d="M439.027 249.218C439.027 251.043 437.724 252.346 435.899 252.346C434.075 252.346 432.771 251.043 432.771 249.218C432.771 247.394 434.075 246.09 435.899 246.09C437.724 246.09 439.027 247.394 439.027 249.218Z" fill="#3B351A"/>
<path d="M436.421 249.218H435.378V745.221H436.421V249.218Z" fill="#3B351A"/>
<path d="M495.326 272.415C495.326 274.24 494.023 275.543 492.198 275.543C490.374 275.543 489.07 274.24 489.07 272.415C489.07 270.591 490.374 269.288 492.198 269.288C494.023 269.548 495.326 270.851 495.326 272.415Z" fill="#3B351A"/>
<path d="M492.98 272.415H491.938V768.419H492.98V272.415Z" fill="#3B351A"/>
<path d="M454.144 259.644C454.144 261.468 452.58 262.771 451.016 262.771C449.192 262.771 447.889 261.208 447.889 259.644C447.889 257.819 449.453 256.516 451.016 256.516C452.58 256.516 454.144 257.819 454.144 259.644Z" fill="#3B351A"/>
<path d="M451.277 259.644H450.235V775.195H451.277V259.644Z" fill="#3B351A"/>
<path d="M471.347 209.34C471.347 211.164 469.783 212.467 468.219 212.467C466.394 212.467 465.091 210.904 465.091 209.34C465.091 207.515 466.655 206.212 468.219 206.212C470.043 206.212 471.347 207.515 471.347 209.34Z" fill="#3B351A"/>
<path d="M468.74 209.34H467.698V724.891H468.74V209.34Z" fill="#3B351A"/>
<path d="M544.066 76.4118C546.513 76.4118 548.497 74.428 548.497 71.9809C548.497 69.5338 546.513 67.5499 544.066 67.5499C541.619 67.5499 539.635 69.5338 539.635 71.9809C539.635 74.428 541.619 76.4118 544.066 76.4118Z" fill="#3B351A"/>
<path d="M544.848 71.9809H543.284V772.328H544.848V71.9809Z" fill="#3B351A"/>
<g opacity="0.62">
<path d="M693.675 137.663C695.402 137.663 696.803 136.263 696.803 134.535C696.803 132.808 695.402 131.407 693.675 131.407C691.948 131.407 690.547 132.808 690.547 134.535C690.547 136.263 691.948 137.663 693.675 137.663Z" fill="#3B351A"/>
<path d="M694.196 134.535H693.154V630.539H694.196V134.535Z" fill="#3B351A"/>
<path d="M753.102 157.732C753.102 159.557 751.798 160.86 749.974 160.86C748.149 160.86 746.846 159.557 746.846 157.732C746.846 155.908 748.149 154.605 749.974 154.605C751.538 154.865 753.102 156.169 753.102 157.732Z" fill="#3B351A"/>
<path d="M750.495 157.732H749.453V653.736H750.495V157.732Z" fill="#3B351A"/>
<path d="M711.659 144.961C711.659 146.785 710.096 148.089 708.532 148.089C706.707 148.089 705.404 146.525 705.404 144.961C705.404 143.136 706.968 141.833 708.532 141.833C710.356 141.833 711.659 143.136 711.659 144.961Z" fill="#3B351A"/>
<path d="M709.053 144.961H708.01V660.513H709.053V144.961Z" fill="#3B351A"/>
<path d="M728.862 94.6568C728.862 96.4813 727.298 97.7845 725.734 97.7845C723.91 97.7845 722.606 96.2207 722.606 94.6568C722.606 92.8323 724.17 91.5291 725.734 91.5291C727.559 91.5291 728.862 92.8323 728.862 94.6568Z" fill="#3B351A"/>
<path d="M726.255 94.6568H725.213V610.209H726.255V94.6568Z" fill="#3B351A"/>
<path d="M802.363 -34.1008H800.799V666.247H802.363V-34.1008Z" fill="#3B351A"/>
<path d="M693.675 137.663C695.402 137.663 696.803 136.263 696.803 134.535C696.803 132.808 695.402 131.407 693.675 131.407C691.948 131.407 690.547 132.808 690.547 134.535C690.547 136.263 691.948 137.663 693.675 137.663Z" fill="#3B351A"/>
<path d="M694.196 134.535H693.154V630.539H694.196V134.535Z" fill="#3B351A"/>
<path d="M753.102 157.732C753.102 159.557 751.798 160.86 749.974 160.86C748.149 160.86 746.846 159.557 746.846 157.732C746.846 155.908 748.149 154.605 749.974 154.605C751.538 154.865 753.102 156.169 753.102 157.732Z" fill="#3B351A"/>
<path d="M750.495 157.732H749.453V653.736H750.495V157.732Z" fill="#3B351A"/>
<path d="M711.659 144.961C711.659 146.785 710.096 148.089 708.532 148.089C706.707 148.089 705.404 146.525 705.404 144.961C705.404 143.136 706.968 141.833 708.532 141.833C710.356 141.833 711.659 143.136 711.659 144.961Z" fill="#3B351A"/>
<path d="M709.053 144.961H708.01V660.513H709.053V144.961Z" fill="#3B351A"/>
<path d="M728.862 94.6568C728.862 96.4813 727.298 97.7845 725.734 97.7845C723.91 97.7845 722.606 96.2207 722.606 94.6568C722.606 92.8323 724.17 91.5291 725.734 91.5291C727.559 91.5291 728.862 92.8323 728.862 94.6568Z" fill="#3B351A"/>
<path d="M726.255 94.6568H725.213V610.209H726.255V94.6568Z" fill="#3B351A"/>
<path d="M802.363 -42.702H800.799V657.646H802.363V-42.702Z" fill="#3B351A"/>
</g>
<path d="M909.488 210.904C909.488 212.207 908.445 213.51 906.881 213.51C905.578 213.51 904.275 212.467 904.275 210.904C904.275 209.6 905.317 208.297 906.881 208.297C908.445 208.297 909.488 209.6 909.488 210.904Z" fill="#3B351A"/>
<path d="M907.142 210.904H906.36V624.023H907.142V210.904Z" fill="#3B351A"/>
<path d="M956.403 230.452C956.403 231.755 955.361 233.058 953.797 233.058C952.494 233.058 951.19 232.016 951.19 230.452C951.19 229.149 952.233 227.845 953.797 227.845C955.1 227.845 956.403 228.888 956.403 230.452Z" fill="#3B351A"/>
<path d="M954.058 230.452H953.276V643.571H954.058V230.452Z" fill="#3B351A"/>
<path d="M921.998 219.765C921.998 221.329 920.695 222.372 919.392 222.372C918.089 222.372 916.786 221.069 916.786 219.765C916.786 218.462 918.089 217.159 919.392 217.159C920.695 217.159 921.998 218.202 921.998 219.765Z" fill="#3B351A"/>
<path d="M919.653 219.765H918.871V649.044H919.653V219.765Z" fill="#3B351A"/>
<path d="M936.334 177.802C936.334 179.366 935.03 180.408 933.727 180.408C932.424 180.408 931.121 179.105 931.121 177.802C931.121 176.499 932.424 175.195 933.727 175.195C935.03 175.195 936.334 176.238 936.334 177.802Z" fill="#3B351A"/>
<path d="M933.988 177.802H933.206V607.081H933.988V177.802Z" fill="#3B351A"/>
<path d="M1000.45 70.6777C1000.45 72.7628 998.888 74.3266 996.803 74.3266C994.718 74.3266 993.154 72.7628 993.154 70.6777C993.154 68.5925 994.718 67.0286 996.803 67.0286C998.888 67.0286 1000.45 68.5925 1000.45 70.6777Z" fill="#3B351A"/>
<path d="M997.585 70.6776H996.282V653.996H997.585V70.6776Z" fill="#3B351A"/>
<path d="M909.488 210.904C909.488 212.207 908.445 213.51 906.881 213.51C905.578 213.51 904.275 212.467 904.275 210.904C904.275 209.6 905.317 208.297 906.881 208.297C908.445 208.297 909.488 209.6 909.488 210.904Z" fill="#3B351A"/>
<path d="M907.142 210.904H906.36V624.023H907.142V210.904Z" fill="#3B351A"/>
<path d="M956.403 230.452C956.403 231.755 955.361 233.058 953.797 233.058C952.494 233.058 951.19 232.016 951.19 230.452C951.19 229.149 952.233 227.845 953.797 227.845C955.1 227.845 956.403 228.888 956.403 230.452Z" fill="#3B351A"/>
<path d="M954.058 230.452H953.276V643.571H954.058V230.452Z" fill="#3B351A"/>
<path d="M921.998 219.765C921.998 221.329 920.695 222.372 919.392 222.372C918.089 222.372 916.786 221.069 916.786 219.765C916.786 218.462 918.089 217.159 919.392 217.159C920.695 217.159 921.998 218.202 921.998 219.765Z" fill="#3B351A"/>
<path d="M919.653 219.765H918.871V649.044H919.653V219.765Z" fill="#3B351A"/>
<path d="M936.334 177.802C936.334 179.366 935.03 180.408 933.727 180.408C932.424 180.408 931.121 179.105 931.121 177.802C931.121 176.499 932.424 175.195 933.727 175.195C935.03 175.195 936.334 176.238 936.334 177.802Z" fill="#3B351A"/>
<path d="M933.988 177.802H933.206V607.081H933.988V177.802Z" fill="#3B351A"/>
<path d="M1000.45 63.3796C1000.45 65.4648 998.888 67.0286 996.803 67.0286C994.718 67.0286 993.154 65.4648 993.154 63.3796C993.154 61.2945 994.718 59.7306 996.803 59.7306C998.888 59.7306 1000.45 61.2945 1000.45 63.3796Z" fill="#3B351A"/>
<path d="M997.585 63.3797H996.282V646.699H997.585V63.3797Z" fill="#3B351A"/>
<path d="M559.705 270.07C559.705 271.894 558.401 273.197 556.577 273.197C554.752 273.197 553.449 271.894 553.449 270.07C553.449 268.245 554.752 266.942 556.577 266.942C558.141 266.942 559.705 268.245 559.705 270.07Z" fill="#3B351A"/>
<path d="M557.098 270.07H556.056V766.073H557.098V270.07Z" fill="#3B351A"/>
<path d="M616.003 293.267C616.003 295.091 614.7 296.395 612.876 296.395C611.051 296.395 609.748 295.091 609.748 293.267C609.748 291.442 611.051 290.139 612.876 290.139C614.7 290.139 616.003 291.703 616.003 293.267Z" fill="#3B351A"/>
<path d="M613.397 293.267H612.354V789.27H613.397V293.267Z" fill="#3B351A"/>
<path d="M574.561 280.495C574.561 282.32 572.997 283.623 571.433 283.623C569.609 283.623 568.306 282.059 568.306 280.495C568.306 278.671 569.87 277.367 571.433 277.367C573.258 277.367 574.561 278.671 574.561 280.495Z" fill="#3B351A"/>
<path d="M571.955 280.495H570.912V796.047H571.955V280.495Z" fill="#3B351A"/>
<path d="M591.764 230.191C591.764 232.016 590.2 233.319 588.636 233.319C587.072 233.319 585.508 231.755 585.508 230.191C585.508 228.367 587.072 227.063 588.636 227.063C590.2 227.063 591.764 228.367 591.764 230.191Z" fill="#3B351A"/>
<path d="M589.157 230.191H588.115V745.743H589.157V230.191Z" fill="#3B351A"/>
<path d="M664.483 105.864C666.93 105.864 668.914 103.881 668.914 101.434C668.914 98.9864 666.93 97.0026 664.483 97.0026C662.036 97.0026 660.052 98.9864 660.052 101.434C660.052 103.881 662.036 105.864 664.483 105.864Z" fill="#3B351A"/>
<path d="M665.265 101.434H663.701V733.493H665.265V101.434Z" fill="#3B351A"/>
<path d="M559.705 270.07C559.705 271.894 558.401 273.197 556.577 273.197C554.752 273.197 553.449 271.894 553.449 270.07C553.449 268.245 554.752 266.942 556.577 266.942C558.141 266.942 559.705 268.245 559.705 270.07Z" fill="#3B351A"/>
<path d="M557.098 270.07H556.056V766.073H557.098V270.07Z" fill="#3B351A"/>
<path d="M616.003 293.267C616.003 295.091 614.7 296.395 612.876 296.395C611.051 296.395 609.748 295.091 609.748 293.267C609.748 291.442 611.051 290.139 612.876 290.139C614.7 290.139 616.003 291.703 616.003 293.267Z" fill="#3B351A"/>
<path d="M613.397 293.267H612.354V789.27H613.397V293.267Z" fill="#3B351A"/>
<path d="M574.561 280.495C574.561 282.32 572.997 283.623 571.433 283.623C569.609 283.623 568.306 282.059 568.306 280.495C568.306 278.671 569.87 277.367 571.433 277.367C573.258 277.367 574.561 278.671 574.561 280.495Z" fill="#3B351A"/>
<path d="M571.955 280.495H570.912V796.047H571.955V280.495Z" fill="#3B351A"/>
<path d="M591.764 230.191C591.764 232.016 590.2 233.319 588.636 233.319C587.072 233.319 585.508 231.755 585.508 230.191C585.508 228.367 587.072 227.063 588.636 227.063C590.2 227.063 591.764 228.367 591.764 230.191Z" fill="#3B351A"/>
<path d="M589.157 230.191H588.115V745.743H589.157V230.191Z" fill="#3B351A"/>
<path d="M664.483 97.2633C666.93 97.2633 668.914 95.2795 668.914 92.8323C668.914 90.3852 666.93 88.4014 664.483 88.4014C662.036 88.4014 660.052 90.3852 660.052 92.8323C660.052 95.2795 662.036 97.2633 664.483 97.2633Z" fill="#3B351A"/>
<path d="M665.265 92.8323H663.701V793.18H665.265V92.8323Z" fill="#3B351A"/>
<g opacity="0.62">
<path d="M774.214 210.904C774.214 212.728 772.911 214.031 771.086 214.031C769.262 214.031 767.958 212.728 767.958 210.904C767.958 209.079 769.262 207.776 771.086 207.776C772.911 207.776 774.214 209.34 774.214 210.904Z" fill="#3B351A"/>
<path d="M771.607 210.904H770.565V706.907H771.607V210.904Z" fill="#3B351A"/>
<path d="M827.385 237.489C829.112 237.489 830.513 236.089 830.513 234.361C830.513 232.634 829.112 231.234 827.385 231.234C825.658 231.234 824.257 232.634 824.257 234.361C824.257 236.089 825.658 237.489 827.385 237.489Z" fill="#3B351A"/>
<path d="M827.906 234.361H826.864V730.365H827.906V234.361Z" fill="#3B351A"/>
<path d="M789.331 221.59C789.331 223.414 787.767 224.718 786.204 224.718C784.379 224.718 783.076 223.154 783.076 221.59C783.076 220.026 784.64 218.462 786.204 218.462C787.767 218.201 789.331 219.765 789.331 221.59Z" fill="#3B351A"/>
<path d="M786.464 221.59H785.422V737.142H786.464V221.59Z" fill="#3B351A"/>
<path d="M806.534 171.286C806.534 173.11 804.97 174.414 803.406 174.414C801.842 174.414 800.278 172.85 800.278 171.286C800.278 169.461 801.842 168.158 803.406 168.158C804.97 168.158 806.534 169.461 806.534 171.286Z" fill="#3B351A"/>
<path d="M803.667 171.286H802.624V686.838H803.667V171.286Z" fill="#3B351A"/>
<path d="M883.684 42.5282C883.684 44.874 881.599 46.9592 879.253 46.9592C876.907 46.9592 874.822 44.874 874.822 42.5282C874.822 40.1825 876.907 38.0973 879.253 38.0973C881.599 38.0973 883.684 40.1825 883.684 42.5282Z" fill="#3B351A"/>
<path d="M880.035 42.5282H878.471V742.876H880.035V42.5282Z" fill="#3B351A"/>
<path d="M774.214 210.904C774.214 212.728 772.911 214.031 771.086 214.031C769.262 214.031 767.958 212.728 767.958 210.904C767.958 209.079 769.262 207.776 771.086 207.776C772.911 207.776 774.214 209.34 774.214 210.904Z" fill="#3B351A"/>
<path d="M771.607 210.904H770.565V706.907H771.607V210.904Z" fill="#3B351A"/>
<path d="M827.385 237.489C829.112 237.489 830.513 236.089 830.513 234.361C830.513 232.634 829.112 231.234 827.385 231.234C825.658 231.234 824.257 232.634 824.257 234.361C824.257 236.089 825.658 237.489 827.385 237.489Z" fill="#3B351A"/>
<path d="M827.906 234.361H826.864V730.365H827.906V234.361Z" fill="#3B351A"/>
<path d="M789.331 221.59C789.331 223.414 787.767 224.718 786.204 224.718C784.379 224.718 783.076 223.154 783.076 221.59C783.076 220.026 784.64 218.462 786.204 218.462C787.767 218.201 789.331 219.765 789.331 221.59Z" fill="#3B351A"/>
<path d="M786.464 221.59H785.422V737.142H786.464V221.59Z" fill="#3B351A"/>
<path d="M806.534 171.286C806.534 173.11 804.97 174.414 803.406 174.414C801.842 174.414 800.278 172.85 800.278 171.286C800.278 169.461 801.842 168.158 803.406 168.158C804.97 168.158 806.534 169.461 806.534 171.286Z" fill="#3B351A"/>
<path d="M803.667 171.286H802.624V686.838H803.667V171.286Z" fill="#3B351A"/>
<path d="M883.684 33.6664C883.684 36.0122 881.599 38.0973 879.253 38.0973C876.907 38.0973 874.822 36.0122 874.822 33.6664C874.822 31.3206 876.907 29.2354 879.253 29.2354C881.599 29.2354 883.684 31.3206 883.684 33.6664Z" fill="#3B351A"/>
<path d="M880.035 33.6664H878.471V734.014H880.035V33.6664Z" fill="#3B351A"/>
</g>
<g opacity="0.62">
<path d="M1120.35 257.298C1120.35 258.862 1119.04 260.165 1117.48 260.165C1115.92 260.165 1114.61 258.862 1114.61 257.298C1114.61 255.734 1115.92 254.431 1117.48 254.431C1119.04 254.431 1120.35 255.734 1120.35 257.298Z" fill="#3B351A"/>
<path d="M1118 257.298H1116.96V703.779H1118V257.298Z" fill="#3B351A"/>
</g>
<path d="M996.021 273.979C996.021 275.543 994.718 276.846 993.154 276.846C991.59 276.846 990.287 275.543 990.287 273.979C990.287 272.415 991.59 271.112 993.154 271.112C994.718 271.112 996.021 272.415 996.021 273.979Z" fill="#3B351A"/>
<path d="M993.675 273.979H992.632V720.46H993.675V273.979Z" fill="#3B351A"/>
<g opacity="0.62">
<path d="M913.397 276.586C913.397 277.889 912.354 278.671 911.312 278.671C910.009 278.671 909.227 277.628 909.227 276.586C909.227 275.282 910.269 274.5 911.312 274.5C912.615 274.5 913.397 275.282 913.397 276.586Z" fill="#3B351A"/>
<path d="M911.833 276.586H911.051V616.725H911.833V276.586Z" fill="#3B351A"/>
</g>
<g opacity="0.62">
<path d="M765.873 279.974C767.457 279.974 768.74 278.69 768.74 277.107C768.74 275.523 767.457 274.24 765.873 274.24C764.29 274.24 763.006 275.523 763.006 277.107C763.006 278.69 764.29 279.974 765.873 279.974Z" fill="#3B351A"/>
<path d="M766.394 277.107H765.352V741.051H766.394V277.107Z" fill="#3B351A"/>
</g>
<path d="M959.792 283.623C959.792 285.187 958.488 286.49 956.924 286.49C955.361 286.49 954.057 285.187 954.057 283.623C954.057 282.059 955.361 280.756 956.924 280.756C958.488 280.756 959.792 282.059 959.792 283.623Z" fill="#3B351A"/>
<path d="M957.446 283.623H956.403V747.567H957.446V283.623Z" fill="#3B351A"/>
<path d="M1408.88 298.48C1410.46 298.48 1411.75 297.196 1411.75 295.612C1411.75 294.029 1410.46 292.745 1408.88 292.745C1407.3 292.745 1406.01 294.029 1406.01 295.612C1406.01 297.196 1407.3 298.48 1408.88 298.48Z" fill="#3B351A"/>
<path d="M1409.4 295.612H1408.36V759.557H1409.4V295.612Z" fill="#3B351A"/>
<g opacity="0.62">
<path d="M882.12 267.724C883.703 267.724 884.987 266.44 884.987 264.857C884.987 263.273 883.703 261.99 882.12 261.99C880.536 261.99 879.253 263.273 879.253 264.857C879.253 266.44 880.536 267.724 882.12 267.724Z" fill="#3B351A"/>
<path d="M882.641 264.857H881.599V718.115H882.641V264.857Z" fill="#3B351A"/>
<path d="M884.987 259.123C884.987 260.686 883.684 261.99 882.12 261.99C880.556 261.99 879.253 260.686 879.253 259.123C879.253 257.559 880.556 256.255 882.12 256.255C883.684 256.255 884.987 257.559 884.987 259.123Z" fill="#3B351A"/>
<path d="M882.641 259.122H881.599V712.381H882.641V259.122Z" fill="#3B351A"/>
</g>
<g opacity="0.62">
<path d="M351.19 257.298C351.19 258.862 349.887 260.165 348.323 260.165C346.759 260.165 345.456 258.862 345.456 257.298C345.456 255.734 346.759 254.431 348.323 254.431C349.887 254.431 351.19 255.734 351.19 257.298Z" fill="#3B351A"/>
<path d="M349.105 257.298H348.063V703.779H349.105V257.298Z" fill="#3B351A"/>
</g>
<path d="M226.864 273.979C226.864 275.543 225.56 276.846 223.997 276.846C222.433 276.846 221.13 275.543 221.13 273.979C221.13 272.415 222.433 271.112 223.997 271.112C225.56 271.112 226.864 272.415 226.864 273.979Z" fill="#3B351A"/>
<path d="M224.779 273.979H223.736V720.46H224.779V273.979Z" fill="#3B351A"/>
<path d="M144.5 276.586C144.5 277.889 143.458 278.671 142.415 278.671C141.112 278.671 140.33 277.628 140.33 276.586C140.33 275.282 141.373 274.5 142.415 274.5C143.458 274.5 144.5 275.282 144.5 276.586Z" fill="#3B351A"/>
<path d="M142.676 276.586H141.894V616.725H142.676V276.586Z" fill="#3B351A"/>
<path d="M190.634 283.623C190.634 285.187 189.331 286.49 187.767 286.49C186.203 286.49 184.9 285.187 184.9 283.623C184.9 282.059 186.203 280.756 187.767 280.756C189.331 280.756 190.634 282.059 190.634 283.623Z" fill="#3B351A"/>
<path d="M188.288 283.623H187.246V747.567H188.288V283.623Z" fill="#3B351A"/>
<path d="M639.722 298.48C641.305 298.48 642.589 297.196 642.589 295.612C642.589 294.029 641.305 292.745 639.722 292.745C638.139 292.745 636.855 294.029 636.855 295.612C636.855 297.196 638.139 298.48 639.722 298.48Z" fill="#3B351A"/>
<path d="M640.243 295.612H639.201V759.557H640.243V295.612Z" fill="#3B351A"/>
<path d="M115.83 264.857C115.83 266.421 114.527 267.724 112.963 267.724C111.399 267.724 110.096 266.421 110.096 264.857C110.096 263.293 111.399 261.99 112.963 261.99C114.787 261.99 115.83 263.293 115.83 264.857Z" fill="#3B351A"/>
<path d="M113.745 264.857H112.702V718.115H113.745V264.857Z" fill="#3B351A"/>
<path d="M115.83 259.123C115.83 260.686 114.527 261.99 112.963 261.99C111.399 261.99 110.096 260.686 110.096 259.123C110.096 257.559 111.399 256.255 112.963 256.255C114.787 256.255 115.83 257.559 115.83 259.123Z" fill="#3B351A"/>
<path d="M113.745 259.122H112.702V712.381H113.745V259.122Z" fill="#3B351A"/>
<g opacity="0.62">
<path d="M373.866 167.637C373.866 169.461 372.302 171.025 370.478 171.025C368.653 171.025 367.09 169.461 367.09 167.637C367.09 165.812 368.653 164.248 370.478 164.248C372.302 164.248 373.866 165.812 373.866 167.637Z" fill="#3B351A"/>
<path d="M370.999 167.637H369.957V711.859H370.999V167.637Z" fill="#3B351A"/>
</g>
<path d="M231.034 156.95C231.034 158.775 229.47 160.599 227.385 160.599C225.56 160.599 223.736 159.036 223.736 156.95C223.736 155.126 225.3 153.301 227.385 153.301C229.47 153.301 231.034 155.126 231.034 156.95Z" fill="#3B351A"/>
<path d="M228.167 156.95H226.864V722.806H228.167V156.95Z" fill="#3B351A"/>
<path d="M405.665 119.939C405.665 121.764 404.101 123.588 402.016 123.588C400.191 123.588 398.367 122.024 398.367 119.939C398.367 118.115 399.931 116.29 402.016 116.29C404.101 116.551 405.665 118.115 405.665 119.939Z" fill="#3B351A"/>
<path d="M402.798 119.939H401.494V685.795H402.798V119.939Z" fill="#3B351A"/>
<path d="M344.935 293.006C344.935 294.049 344.153 294.831 343.11 294.831C342.068 294.831 341.286 294.049 341.286 293.006C341.286 291.964 342.068 291.182 343.11 291.182C343.892 290.921 344.935 291.703 344.935 293.006Z" fill="#3B351A"/>
<path d="M343.11 293.006H342.589V598.219H343.11V293.006Z" fill="#3B351A"/>
<path d="M241.199 234.361C241.199 235.665 240.156 236.707 238.853 236.707C237.55 236.707 236.507 235.665 236.507 234.361C236.507 233.058 237.55 232.016 238.853 232.016C240.156 232.016 241.199 233.058 241.199 234.361Z" fill="#3B351A"/>
<path d="M239.114 234.361H238.332V625.847H239.114V234.361Z" fill="#3B351A"/>
<path d="M283.162 255.213C284.458 255.213 285.508 254.163 285.508 252.867C285.508 251.572 284.458 250.521 283.162 250.521C281.867 250.521 280.817 251.572 280.817 252.867C280.817 254.163 281.867 255.213 283.162 255.213Z" fill="#3B351A"/>
<path d="M283.684 252.867H282.902V644.353H283.684V252.867Z" fill="#3B351A"/>
<path d="M252.928 242.702C252.928 244.005 251.885 245.308 250.321 245.308C248.758 245.308 247.715 244.266 247.715 242.702C247.715 241.399 248.758 240.096 250.321 240.096C251.885 240.096 252.928 241.399 252.928 242.702Z" fill="#3B351A"/>
<path d="M250.843 242.702H250.061V649.566H250.843V242.702Z" fill="#3B351A"/>
<path d="M266.742 203.084C266.742 204.387 265.699 205.691 264.136 205.691C262.832 205.691 261.529 204.648 261.529 203.084C261.529 201.781 262.572 200.478 264.136 200.478C265.439 200.478 266.742 201.52 266.742 203.084Z" fill="#3B351A"/>
<path d="M264.396 203.084H263.614V609.948H264.396V203.084Z" fill="#3B351A"/>
<path d="M324.083 219.244C325.955 219.244 327.472 217.727 327.472 215.856C327.472 213.984 325.955 212.467 324.083 212.467C322.212 212.467 320.695 213.984 320.695 215.856C320.695 217.727 322.212 219.244 324.083 219.244Z" fill="#3B351A"/>
<path d="M324.344 215.856H323.302V714.726H324.344V215.856Z" fill="#3B351A"/>
<path d="M241.199 234.361C241.199 235.665 240.156 236.707 238.853 236.707C237.55 236.707 236.507 235.665 236.507 234.361C236.507 233.058 237.55 232.016 238.853 232.016C240.156 232.016 241.199 233.058 241.199 234.361Z" fill="#3B351A"/>
<path d="M239.114 234.361H238.332V625.847H239.114V234.361Z" fill="#3B351A"/>
<path d="M283.162 255.213C284.458 255.213 285.508 254.163 285.508 252.867C285.508 251.572 284.458 250.521 283.162 250.521C281.867 250.521 280.817 251.572 280.817 252.867C280.817 254.163 281.867 255.213 283.162 255.213Z" fill="#3B351A"/>
<path d="M283.684 252.867H282.902V644.353H283.684V252.867Z" fill="#3B351A"/>
<path d="M252.928 242.702C252.928 244.005 251.885 245.308 250.321 245.308C248.758 245.308 247.715 244.266 247.715 242.702C247.715 241.399 248.758 240.096 250.321 240.096C251.885 240.096 252.928 241.399 252.928 242.702Z" fill="#3B351A"/>
<path d="M250.843 242.702H250.061V649.566H250.843V242.702Z" fill="#3B351A"/>
<path d="M266.742 203.084C266.742 204.387 265.699 205.691 264.136 205.691C262.832 205.691 261.529 204.648 261.529 203.084C261.529 201.781 262.572 200.478 264.136 200.478C265.439 200.478 266.742 201.52 266.742 203.084Z" fill="#3B351A"/>
<path d="M264.396 203.084H263.614V609.948H264.396V203.084Z" fill="#3B351A"/>
<path d="M324.083 219.244C325.955 219.244 327.472 217.727 327.472 215.856C327.472 213.984 325.955 212.467 324.083 212.467C322.212 212.467 320.695 213.984 320.695 215.856C320.695 217.727 322.212 219.244 324.083 219.244Z" fill="#3B351A"/>
<path d="M324.344 215.856H323.302V714.726H324.344V215.856Z" fill="#3B351A"/>
<g opacity="0.62">
<path d="M12.8758 298.219C12.8758 299.522 11.8332 300.565 10.53 300.565C9.22682 300.565 8.18424 299.522 8.18424 298.219C8.18424 296.916 9.22682 295.873 10.53 295.873C11.8332 295.873 12.8758 296.916 12.8758 298.219Z" fill="#3B351A"/>
<path d="M38.4188 266.681C38.4188 267.984 37.3762 269.288 35.8123 269.288C34.2485 269.288 33.2059 268.245 33.2059 266.681C33.2059 265.378 34.2485 264.075 35.8123 264.075C37.3762 264.075 38.4188 265.378 38.4188 266.681Z" fill="#3B351A"/>
<path d="M36.073 266.681H35.291V673.545H36.073V266.681Z" fill="#3B351A"/>
<path d="M95.7603 283.102C97.6316 283.102 99.1486 281.585 99.1486 279.713C99.1486 277.842 97.6316 276.325 95.7603 276.325C93.8889 276.325 92.3719 277.842 92.3719 279.713C92.3719 281.585 93.8889 283.102 95.7603 283.102Z" fill="#3B351A"/>
<path d="M96.0209 279.713H94.9783V690.487H96.0209V279.713Z" fill="#3B351A"/>
<path d="M12.8758 298.219C12.8758 299.522 11.8332 300.565 10.53 300.565C9.22682 300.565 8.18424 299.522 8.18424 298.219C8.18424 296.916 9.22682 295.873 10.53 295.873C11.8332 295.873 12.8758 296.916 12.8758 298.219Z" fill="#3B351A"/>
<path d="M38.4188 266.681C38.4188 267.984 37.3762 269.288 35.8123 269.288C34.2485 269.288 33.2059 268.245 33.2059 266.681C33.2059 265.378 34.2485 264.075 35.8123 264.075C37.3762 264.075 38.4188 265.378 38.4188 266.681Z" fill="#3B351A"/>
<path d="M36.073 266.681H35.291V673.545H36.073V266.681Z" fill="#3B351A"/>
<path d="M95.7603 283.102C97.6316 283.102 99.1486 281.585 99.1486 279.713C99.1486 277.842 97.6316 276.325 95.7603 276.325C93.8889 276.325 92.3719 277.842 92.3719 279.713C92.3719 281.585 93.8889 283.102 95.7603 283.102Z" fill="#3B351A"/>
<path d="M96.0209 279.713H94.9783V690.487H96.0209V279.713Z" fill="#3B351A"/>
</g>
</g>
</svg>