<svg width="1440" height="644" viewBox="0 0 1440 644" fill="none" xmlns="http://www.w3.org/2000/svg">
<rect x="0.5" y="544.784" width="17.1489" height="59.2452" rx="1.5" fill="#F2F2F2" fill-opacity="0.62" stroke="#EAEAEA"/>
<rect x="75.3641" y="476.229" width="17.1489" height="95.9462" rx="1.5" fill="#F2F2F2" fill-opacity="0.62" stroke="#EAEAEA"/>
<rect x="125.274" y="381.36" width="17.1489" height="116.72" rx="1.5" fill="#F2F2F2" fill-opacity="0.62" stroke="#EAEAEA"/>
<rect x="175.183" y="313.498" width="17.1489" height="151.344" rx="1.5" fill="#F2F2F2" fill-opacity="0.62" stroke="#EAEAEA"/>
<rect x="224.525" y="316.268" width="17.1489" height="130.57" rx="1.5" fill="#F2F2F2" fill-opacity="0.62" stroke="#EAEAEA"/>
<rect x="1422.35" y="0.5" width="17.1489" height="54.3978" rx="1.5" fill="#F2F2F2" fill-opacity="0.62" stroke="#EAEAEA"/>
<rect x="1372.44" y="98.8312" width="17.1489" height="130.57" rx="1.5" fill="#F2F2F2" fill-opacity="0.62" stroke="#EAEAEA"/>
<rect x="1347.49" y="143.149" width="17.1489" height="33.6237" rx="1.5" fill="#F2F2F2" fill-opacity="0.62" stroke="#EAEAEA"/>
<rect x="1297.58" y="136.225" width="17.1489" height="116.72" rx="1.5" fill="#F2F2F2" fill-opacity="0.62" stroke="#EAEAEA"/>
<rect x="1247.67" y="171.541" width="17.1489" height="54.3978" rx="1.5" fill="#F2F2F2" fill-opacity="0.62" stroke="#EAEAEA"/>
<rect x="1197.76" y="159.769" width="17.1489" height="95.9462" rx="1.5" fill="#F2F2F2" fill-opacity="0.62" stroke="#EAEAEA"/>
<rect x="1147.85" y="276.104" width="17.1489" height="33.6237" rx="1.5" fill="#F2F2F2" fill-opacity="0.62" stroke="#EAEAEA"/>
<rect x="1097.94" y="262.255" width="17.1489" height="61.3226" rx="1.5" fill="#F2F2F2" fill-opacity="0.62" stroke="#EAEAEA"/>
<rect x="1048.03" y="208.242" width="17.1489" height="130.57" rx="1.5" fill="#F2F2F2" fill-opacity="0.62" stroke="#EAEAEA"/>
<rect x="973.166" y="249.79" width="17.1489" height="54.3978" rx="1.5" fill="#F2F2F2" fill-opacity="0.62" stroke="#EAEAEA"/>
<rect x="898.302" y="341.889" width="17.1489" height="130.57" rx="1.5" fill="#F2F2F2" fill-opacity="0.62" stroke="#EAEAEA"/>
<rect x="848.393" y="402.134" width="17.1489" height="61.3226" rx="1.5" fill="#F2F2F2" fill-opacity="0.62" stroke="#EAEAEA"/>
<rect x="773.529" y="377.898" width="17.1489" height="116.72" rx="1.5" fill="#F2F2F2" fill-opacity="0.62" stroke="#EAEAEA"/>
<rect x="723.619" y="319.038" width="17.1489" height="61.3226" rx="1.5" fill="#F2F2F2" fill-opacity="0.62" stroke="#EAEAEA"/>
<rect x="673.143" y="324.577" width="17.1489" height="130.57" rx="1.5" fill="#F2F2F2" fill-opacity="0.62" stroke="#EAEAEA"/>
<rect x="648.188" y="343.274" width="17.1489" height="33.6237" rx="1.5" fill="#F2F2F2" fill-opacity="0.62" stroke="#EAEAEA"/>
<rect x="573.324" y="243.558" width="17.1489" height="130.57" rx="1.5" fill="#F2F2F2" fill-opacity="0.62" stroke="#EAEAEA"/>
<rect x="548.369" y="283.029" width="17.1489" height="71.7097" rx="1.5" fill="#F2F2F2" fill-opacity="0.62" stroke="#EAEAEA"/>
<rect x="499.027" y="343.967" width="17.1489" height="71.7097" rx="1.5" fill="#F2F2F2" fill-opacity="0.62" stroke="#EAEAEA"/>
<rect x="424.163" y="429.141" width="17.1489" height="33.6237" rx="1.5" fill="#F2F2F2" fill-opacity="0.62" stroke="#EAEAEA"/>
<rect x="399.208" y="364.048" width="17.1489" height="71.7097" rx="1.5" fill="#F2F2F2" fill-opacity="0.62" stroke="#EAEAEA"/>
<rect x="374.253" y="324.577" width="17.1489" height="95.9462" rx="1.5" fill="#F2F2F2" fill-opacity="0.62" stroke="#EAEAEA"/>
<rect x="299.389" y="399.365" width="17.1489" height="33.6237" rx="1.5" fill="#F2F2F2" fill-opacity="0.62" stroke="#EAEAEA"/>
<rect x="25.4547" y="571.79" width="17.1489" height="71.7097" rx="1.5" stroke="#EAEAEA"/>
<rect x="50.4094" y="518.47" width="17.1489" height="82.0968" rx="1.5" stroke="#EAEAEA"/>
<rect x="100.319" y="357.124" width="17.1489" height="130.57" rx="1.5" stroke="#EAEAEA"/>
<rect x="150.228" y="390.362" width="17.1489" height="95.9462" rx="1.5" stroke="#EAEAEA"/>
<rect x="200.138" y="349.506" width="17.1489" height="54.3978" rx="1.5" stroke="#EAEAEA"/>
<rect x="249.48" y="392.44" width="17.1489" height="54.3978" rx="1.5" stroke="#EAEAEA"/>
<rect x="1397.4" y="23.3516" width="17.1489" height="116.72" rx="1.5" stroke="#EAEAEA"/>
<rect x="1322.53" y="178.466" width="17.1489" height="54.3978" rx="1.5" stroke="#EAEAEA"/>
<rect x="1272.62" y="195.777" width="17.1489" height="130.57" rx="1.5" stroke="#EAEAEA"/>
<rect x="1222.71" y="215.167" width="17.1489" height="33.6237" rx="1.5" stroke="#EAEAEA"/>
<rect x="1172.8" y="213.089" width="17.1489" height="54.3978" rx="1.5" stroke="#EAEAEA"/>
<rect x="1122.89" y="298.956" width="17.1489" height="54.3978" rx="1.5" stroke="#EAEAEA"/>
<rect x="1072.99" y="235.248" width="17.1489" height="82.0968" rx="1.5" stroke="#EAEAEA"/>
<rect x="1023.08" y="244.943" width="17.1489" height="54.3978" rx="1.5" stroke="#EAEAEA"/>
<rect x="998.121" y="258.1" width="17.1489" height="33.6237" rx="1.5" stroke="#EAEAEA"/>
<rect x="948.212" y="301.726" width="17.1489" height="82.0968" rx="1.5" stroke="#EAEAEA"/>
<rect x="923.257" y="388.977" width="17.1489" height="61.3226" rx="1.5" stroke="#EAEAEA"/>
<rect x="873.348" y="415.984" width="17.1489" height="116.72" rx="1.5" stroke="#EAEAEA"/>
<rect x="823.438" y="431.911" width="17.1489" height="54.3978" rx="1.5" stroke="#EAEAEA"/>
<rect x="798.483" y="407.674" width="17.1489" height="33.6237" rx="1.5" stroke="#EAEAEA"/>
<rect x="748.574" y="341.889" width="17.1489" height="95.9462" rx="1.5" stroke="#EAEAEA"/>
<rect x="698.097" y="373.743" width="17.1489" height="54.3978" rx="1.5" stroke="#EAEAEA"/>
<rect x="623.233" y="296.186" width="17.1489" height="54.3978" rx="1.5" stroke="#EAEAEA"/>
<rect x="598.279" y="325.27" width="17.1489" height="54.3978" rx="1.5" stroke="#EAEAEA"/>
<rect x="523.982" y="317.653" width="17.1489" height="95.9462" rx="1.5" stroke="#EAEAEA"/>
<rect x="474.072" y="407.674" width="17.1489" height="54.3978" rx="1.5" stroke="#EAEAEA"/>
<rect x="449.118" y="461.687" width="17.1489" height="33.6237" rx="1.5" stroke="#EAEAEA"/>
<rect x="349.299" y="377.898" width="17.1489" height="71.7097" rx="1.5" stroke="#EAEAEA"/>
<rect x="324.344" y="363.356" width="17.1489" height="54.3978" rx="1.5" stroke="#EAEAEA"/>
<rect x="274.435" y="387.592" width="17.1489" height="33.6237" rx="1.5" stroke="#EAEAEA"/>
</svg>
