<svg width="340" height="206" viewBox="0 0 340 206" fill="none" xmlns="http://www.w3.org/2000/svg">
<path d="M95.3 137.667C95.3 137.467 95.3 137.366 95.3 137.266C95.3 136.562 95.3 134.351 83 132.643C75.4 131.538 65.2 131.035 54.4 131.035C43.6 131.035 33.5 131.638 25.8 132.643C13.5 134.351 13.5 136.562 13.5 137.266C13.5 137.366 13.5 137.567 13.6 137.768L16.7 150.128C16.8 150.731 17.3 151.636 20.4 152.741L29.1 199.871C29.1 199.971 29.1 200.072 29.1 200.172V200.273C30.3 203.991 42.7 205.9 54.4 205.9C66.7 205.9 79.8 203.689 79.8 199.67L88.5 152.741C91.7 151.636 92.1 150.731 92.2 150.128L95.3 137.667ZM54.4 132.241C80.8 132.241 94.1 135.457 94.1 137.266C94.1 139.074 80.8 142.29 54.4 142.29C28 142.29 14.7 139.074 14.7 137.266C14.7 135.457 28 132.241 54.4 132.241ZM78.5 199.871C77.6 201.88 68.6 204.493 54.4 204.493C40 204.493 31 201.78 30.3 199.77L21.7 152.942C23.3 153.344 25.3 153.846 28.1 154.248C35.2 155.354 44.5 155.856 54.5 155.856C64.5 155.856 73.8 155.253 80.9 154.248C83.6 153.846 85.7 153.444 87.3 152.942L78.5 199.871ZM80.6 153.042C73.6 154.047 64.3 154.65 54.4 154.65C44.5 154.65 35.2 154.047 28.2 153.042C20.2 151.837 17.9 150.329 17.8 149.726L15.2 139.275C16.8 140.079 19.9 140.984 25.8 141.888C33.4 142.993 43.6 143.496 54.4 143.496C65.2 143.496 75.3 142.893 83 141.888C89 141.084 92 140.079 93.6 139.275L91 149.726C91 150.329 88.8 151.837 80.6 153.042Z" fill="#151515"/>
<path d="M204.4 137.667C204.4 137.467 204.4 137.366 204.4 137.266C204.4 136.562 204.4 134.351 192.1 132.643C184.5 131.538 174.3 131.035 163.5 131.035C152.7 131.035 142.6 131.638 134.9 132.643C122.6 134.351 122.6 136.562 122.6 137.266C122.6 137.366 122.6 137.567 122.7 137.768L125.8 150.128C125.9 150.731 126.4 151.636 129.5 152.741L138.2 199.871C138.2 199.971 138.2 200.072 138.2 200.172V200.273C139.4 203.991 151.8 205.9 163.5 205.9C175.8 205.9 188.9 203.689 188.9 199.67L197.6 152.741C200.8 151.636 201.2 150.731 201.3 150.128L204.4 137.667ZM163.6 132.241C190 132.241 203.3 135.457 203.3 137.266C203.3 139.074 190 142.29 163.6 142.29C137.2 142.29 123.9 139.074 123.9 137.266C123.9 135.457 137.1 132.241 163.6 132.241ZM187.7 199.871C186.8 201.88 177.8 204.493 163.6 204.493C149.2 204.493 140.2 201.78 139.5 199.77L130.9 152.942C132.5 153.344 134.5 153.846 137.3 154.248C144.4 155.354 153.7 155.856 163.7 155.856C173.7 155.856 183 155.253 190.1 154.248C192.8 153.846 194.9 153.444 196.5 152.942L187.7 199.871ZM189.8 153.042C182.8 154.047 173.5 154.65 163.6 154.65C153.7 154.65 144.4 154.047 137.4 153.042C129.4 151.837 127.1 150.329 127 149.726L124.4 139.275C126 140.079 129.1 140.984 135 141.888C142.6 142.993 152.8 143.496 163.6 143.496C174.4 143.496 184.5 142.893 192.2 141.888C198.2 141.084 201.2 140.079 202.8 139.275L200.2 149.726C200.1 150.329 198 151.837 189.8 153.042Z" fill="#151515"/>
<path d="M313.6 137.667C313.6 137.467 313.6 137.366 313.6 137.266C313.6 136.562 313.6 134.351 301.3 132.643C293.7 131.538 283.5 131.035 272.7 131.035C261.9 131.035 251.8 131.638 244.1 132.643C231.8 134.351 231.8 136.562 231.8 137.266C231.8 137.366 231.8 137.567 231.9 137.768L235 150.128C235.1 150.731 235.6 151.636 238.7 152.741L247.4 199.871C247.4 199.971 247.4 200.072 247.4 200.172V200.273C248.6 203.991 261 205.9 272.7 205.9C285 205.9 298.1 203.689 298.1 199.67L306.8 152.741C310 151.636 310.4 150.731 310.5 150.128L313.6 137.667ZM272.7 132.241C299.1 132.241 312.4 135.457 312.4 137.266C312.4 139.074 299.1 142.29 272.7 142.29C246.3 142.29 233 139.074 233 137.266C233 135.457 246.3 132.241 272.7 132.241ZM296.8 199.871C295.9 201.88 286.9 204.493 272.7 204.493C258.3 204.493 249.3 201.78 248.6 199.77L240 152.942C241.6 153.344 243.6 153.846 246.4 154.248C253.5 155.354 262.8 155.856 272.8 155.856C282.8 155.856 292.1 155.253 299.2 154.248C301.9 153.846 304 153.444 305.6 152.942L296.8 199.871ZM298.9 153.042C291.9 154.047 282.6 154.65 272.7 154.65C262.8 154.65 253.5 154.047 246.5 153.042C238.5 151.837 236.2 150.329 236.1 149.726L233.5 139.275C235.1 140.079 238.2 140.984 244.1 141.888C251.7 142.993 261.9 143.496 272.7 143.496C283.5 143.496 293.6 142.893 301.3 141.888C307.3 141.084 310.3 140.079 311.9 139.275L309.3 149.726C309.3 150.329 307.1 151.837 298.9 153.042Z" fill="#151515"/>
<path d="M161 142.19C161.2 142.19 161.4 142.19 161.6 142.19C161.8 142.19 162 142.19 162.3 142.19C162.5 141.084 162.8 138.773 162.6 135.859V135.658C163 126.815 167.8 117.268 175.2 109.932L174.3 109.028C167.8 115.459 163.2 123.8 161.9 131.638C161.7 130.935 161.5 130.231 161.3 129.528C160.3 126.513 158.4 123.8 156.3 120.986C153.2 116.665 149.9 112.143 149.5 105.712C148.8 95.3614 154.7 89.4325 154.8 89.4325L153.9 88.5281C153.6 88.8295 147.5 94.8589 148.2 105.812C148.7 112.545 152.2 117.469 155.2 121.69C157 124.202 158.7 126.614 159.7 129.126C156.4 123.398 150.4 119.378 142.1 117.369L141.8 118.574C153 121.288 159.7 127.719 161.3 137.266C161.4 139.677 161.1 141.386 161 142.19Z" fill="#09A25C"/>
<path d="M295.6 117.369C296.6 114.957 296.8 112.746 297 110.535C297.4 106.415 298.1 101.592 303.4 95.8638L302.5 95.0599C296.8 101.19 296.1 106.315 295.7 110.435C295.4 113.55 295.1 116.565 292.7 119.881C290.2 123.297 286.7 125.307 283.4 127.217C280 129.126 276.8 131.035 275 134.15C274.8 132.442 274.6 130.633 274 128.824C273.3 126.413 271.7 124.403 269.9 122.092C269.5 121.589 269.2 121.187 268.8 120.685C267.5 116.263 269.9 111.339 274.4 108.526L273.8 107.42C269.6 109.932 267 114.354 267.2 118.373C264.6 114.555 262.2 109.53 261.8 101.491C262.2 90.5379 266.9 86.6188 271.4 81.9962C274.4 78.8811 275.5 74.8615 275.8 68.3296L274.6 67.9277C274.4 74.158 273.6 77.8762 270.5 81.1923C265.9 86.1163 260.9 90.1359 260.5 101.692C258.3 97.8736 254.3 93.3516 245.9 91.3418L245.2 92.4472C255.6 95.0599 259.4 101.592 260.8 105.31C262 114.354 265.8 119.077 268.9 122.996C270.1 124.503 271.2 125.91 271.9 127.317C270.5 126.111 268.9 125.106 267 124.503C263.3 123.097 258.2 123.197 254 124.302L254.3 125.508C258.4 124.403 268.2 123.8 272.9 130.332C274.4 136.562 273.4 142.491 273.4 142.491H274.2H274.4C274.5 142.491 274.6 142.491 274.7 142.491C274.7 142.19 275 140.381 275 137.567C275.9 132.945 279.6 130.935 283.8 128.523C287.1 126.614 290.8 124.503 293.5 120.886C296.6 117.469 301.2 116.062 306 116.766L306.2 115.56C302.5 114.655 298.4 115.359 295.6 117.369Z" fill="#09A25C"/>
<path d="M69.9999 63.6066C69.9999 63.5061 70.4999 61.3958 69.9999 59.6875C69.7999 59.0846 68.2999 56.9743 66.3999 54.462L65.2999 55.065C67.1999 57.5772 68.5999 59.587 68.7999 59.989C69.1999 61.2953 68.7999 63.2046 68.7999 63.2046L67.0999 73.3541L59.0999 67.3247C59.0999 66.3198 58.8999 63.3051 58.4999 62.0993C58.2999 61.5968 57.6999 60.6924 56.9999 59.8885L55.8999 60.4914C56.5999 61.2953 57.1999 62.0993 57.2999 62.5012C57.6999 63.5061 57.7999 66.6213 57.7999 67.7267V68.0281L67.8999 75.6654L69.9999 63.6066Z" fill="#231F20"/>
<path d="M51.2001 108.023C62.6877 108.023 72.0002 98.665 72.0002 87.1212C72.0002 75.5774 62.6877 66.2193 51.2001 66.2193C39.7126 66.2193 30.4001 75.5774 30.4001 87.1212C30.4001 98.665 39.7126 108.023 51.2001 108.023Z" fill="white"/>
<path d="M51.2 108.626C39.4 108.626 29.8 98.979 29.8 87.1212C29.8 75.2634 39.4 65.6164 51.2 65.6164C63 65.6164 72.6001 75.2634 72.6001 87.1212C72.6001 98.979 63 108.626 51.2 108.626ZM51.2 66.9228C40.1 66.9228 31 75.9668 31 87.2217C31 98.376 40 107.521 51.2 107.521C62.4 107.521 71.4 98.4765 71.4 87.2217C71.3 75.9668 62.3 66.9228 51.2 66.9228Z" fill="#C5B358"/>
<path fill-rule="evenodd" clip-rule="evenodd" d="M40.5 100.084C37.9 97.8736 35.9 94.8589 35 91.3417C35 91.0403 34.7 90.8393 34.4 90.8393C34.1 90.8393 33.8 91.1408 33.8 91.4422V91.5427C34.7 95.2609 36.8 98.577 39.7 100.989C39.7 100.989 39.7 100.989 39.8 101.089C39.9 101.19 40.0001 101.19 40.1001 101.19C40.4001 101.19 40.7 100.888 40.7 100.587C40.7 100.386 40.6 100.185 40.5 100.084Z" fill="#C5B358"/>
<path fill-rule="evenodd" clip-rule="evenodd" d="M69.1001 86.0158C69.1001 85.9153 69.1001 85.9153 69.1001 85.9153C69.0001 85.7143 68.8 85.5134 68.5 85.5134C68.2 85.5134 67.9 85.8148 67.9 86.1163V86.2168C67.9 86.5182 67.9 86.9202 67.9 87.2217C67.9 96.4667 60.4 104.003 51.2 104.003C48.5 104.003 45.9 103.3 43.7 102.195C43.6 102.094 43.5 102.094 43.4 102.094C43.1 102.094 42.8 102.396 42.8 102.697C42.8 102.898 42.9001 103.099 43.1001 103.2C43.1001 103.2 43.1 103.2 43.2 103.2C45.6 104.405 48.4 105.109 51.3 105.109C61.2 105.109 69.3 96.9692 69.3 87.0207C69.2 86.8197 69.1001 86.4178 69.1001 86.0158Z" fill="#C5B358"/>
<path fill-rule="evenodd" clip-rule="evenodd" d="M68.4 81.9962C68.4 81.8957 68.4 81.8957 68.4 81.8957C67.6 79.3835 66.3 77.0722 64.6 75.1629C64.5 75.0624 64.3 74.9619 64.1 74.9619C63.8 74.9619 63.5 75.2634 63.5 75.5648C63.5 75.7658 63.6 75.8663 63.7 75.9668C65.3 77.7756 66.5 79.8859 67.3 82.2977C67.4 82.5991 67.6 82.6996 67.9 82.6996C68.2 82.6996 68.5 82.3981 68.5 82.0967C68.4 82.0967 68.4 81.9962 68.4 81.9962Z" fill="#C5B358"/>
<path fill-rule="evenodd" clip-rule="evenodd" d="M61.6 72.4497C58.7 70.3394 55.1 69.1335 51.2 69.1335C41.3 69.1335 33.2 77.2732 33.2 87.2217C33.2 87.3222 33.2 87.5232 33.2 87.6237C33.2 87.6237 33.2 87.6236 33.2 87.7241C33.2 88.0256 33.5 88.2266 33.8 88.2266C34.1 88.2266 34.3999 87.9251 34.3999 87.6237C34.3999 87.5232 34.3999 87.3222 34.3999 87.2217C34.3999 77.9766 41.9 70.4399 51.1 70.4399C54.7 70.4399 58 71.5453 60.7 73.5551C60.8 73.6556 60.9 73.6556 61 73.6556C61.3 73.6556 61.6 73.3541 61.6 73.0526C61.8 72.6507 61.7 72.5502 61.6 72.4497Z" fill="#C5B358"/>
<path d="M51.1999 98.6775C50.0999 98.6775 49.2999 97.7731 49.2999 96.7682V96.6677C46.7999 95.8638 44.9999 93.6531 44.9999 91.1408C44.9999 90.0354 45.8999 89.2315 46.8999 89.2315C47.8999 89.2315 48.7999 90.1359 48.7999 91.1408C48.7999 92.2462 49.7999 93.0501 51.0999 93.0501C52.3999 93.0501 53.3999 92.1457 53.3999 91.1408C53.3999 90.0354 52.3999 89.2315 51.0999 89.2315C47.6999 89.2315 44.8999 86.6188 44.8999 83.4031C44.8999 80.8909 46.5999 78.6801 49.1999 77.8762V77.6752C49.1999 76.5698 50.0999 75.7659 51.0999 75.7659C52.0999 75.7659 52.9999 76.6703 52.9999 77.6752V77.8762C55.4999 78.6801 57.2999 80.8909 57.2999 83.4031C57.2999 84.5085 56.3999 85.3124 55.3999 85.3124C54.3999 85.3124 53.4999 84.408 53.4999 83.4031C53.4999 82.2977 52.4999 81.4938 51.1999 81.4938C49.8999 81.4938 48.8999 82.3982 48.8999 83.4031C48.8999 84.5085 49.8999 85.3124 51.1999 85.3124C54.5999 85.3124 57.3999 87.9251 57.3999 91.1408C57.3999 93.6531 55.6999 95.8638 53.0999 96.6677V96.7682C53.0999 97.7731 52.2999 98.6775 51.1999 98.6775ZM46.8999 90.3369C46.4999 90.3369 46.1999 90.6384 46.1999 91.0403C46.1999 93.1506 47.7999 94.9594 49.9999 95.4619L50.4999 95.5624V96.6677C50.4999 97.0697 50.7999 97.3712 51.1999 97.3712C51.5999 97.3712 51.8999 97.0697 51.8999 96.6677V95.5624L52.3999 95.4619C54.5999 94.9594 56.1999 93.1506 56.1999 91.0403C56.1999 88.5281 53.9999 86.4178 51.1999 86.4178C49.1999 86.4178 47.6999 85.0109 47.6999 83.3026C47.6999 81.5943 49.2999 80.0869 51.1999 80.0869C53.0999 80.0869 54.6999 81.4938 54.6999 83.3026C54.6999 83.7046 54.9999 84.006 55.3999 84.006C55.7999 84.006 56.0999 83.7046 56.0999 83.3026C56.0999 81.1923 54.4999 79.3835 52.2999 78.8811L51.7999 78.7806V77.5747C51.7999 77.1727 51.4999 76.8713 51.0999 76.8713C50.6999 76.8713 50.3999 77.1727 50.3999 77.5747V78.7806L49.8999 78.8811C47.6999 79.3835 46.0999 81.1923 46.0999 83.3026C46.0999 85.8148 48.2999 87.9251 51.0999 87.9251C53.0999 87.9251 54.5999 89.332 54.5999 91.1408C54.5999 92.9496 52.9999 94.3565 51.0999 94.3565C49.1999 94.3565 47.5999 92.9496 47.5999 91.1408C47.5999 90.6384 47.2999 90.3369 46.8999 90.3369Z" fill="#C5B358"/>
<path fill-rule="evenodd" clip-rule="evenodd" d="M69.4001 59.8884C68.9001 58.3811 57.9001 44.5135 57.9001 44.5135C57.9001 44.5135 56.0001 42.4032 54.8001 41.6998C53.6001 40.9964 51.1001 40.2929 51.1001 40.2929L32.9001 34.4645L26.4001 27.6312L9.6001 44.5135C9.6001 44.5135 10.9001 45.4179 11.8001 46.8248C12.7001 48.2316 15.2001 60.0894 17.6001 62.7021C19.9001 65.4154 25.9001 69.7364 27.6001 71.3442C29.3001 72.9521 42.3001 86.3172 42.3001 86.3172C42.3001 86.3172 45.1001 88.6285 47.0001 87.0207C48.9001 85.4128 50.0001 79.5844 46.6001 72.9521C43.2001 66.2193 34.1001 65.0134 36.5001 59.8884C38.9001 54.663 52.7001 57.0747 53.3001 57.3762C53.9001 57.6777 57.3001 61.0943 57.8001 62.5012C58.0001 63.1041 58.2001 64.31 58.2001 65.4154C60.1001 65.8173 61.9001 66.5208 63.5001 67.9276C64.5001 68.832 65.1001 69.9374 66.2001 70.7413C66.8001 71.1433 67.4001 71.5452 67.9001 72.0477L69.3001 63.6065C69.4001 63.4056 69.9001 61.3958 69.4001 59.8884Z" fill="white"/>
<path d="M57.8 66.0183C58.2 66.2193 58.7 66.3198 59.1 66.6213C59 65.3149 58.9 63.2046 58.5 62.3002C58 60.8934 54.5 57.2757 53.7 56.8738C53 56.4718 44.6 55.1655 39.6 56.8738C37.8 57.4767 36.6 58.4816 36.1 59.6875C34.5 63.1041 37.2 65.0134 40.1 67.1237C42.3 68.7316 44.8 70.5404 46.2 73.3541C49.4 79.5844 48.5 85.2119 46.8 86.7192C45.4 87.9251 43.1 86.2168 42.9 86.0158C42.1 85.2119 29.8 72.6507 28.2 71.1433C27.6 70.5404 26.4 69.636 25.1 68.5306C22.7 66.6213 19.7 64.2095 18.3 62.5012C16.9 60.8934 15.3 55.4669 14.2 51.5478C13.4 48.8346 13 47.2268 12.6 46.7243C12 45.8199 11.3 45.1165 10.8 44.7145L26.6 28.8371L32.7 35.2685L51.1 41.0969C51.1 41.0969 53.6 41.8003 54.6 42.4032C55.7 43.0062 57.5 45.1165 57.5 45.1165C61.7 50.4424 68.5 59.185 68.9 60.2904C69.3 61.5968 68.9 63.5061 68.9 63.5061L67.4 72.8516C67.8 73.1531 68.2 73.3541 68.5 73.6556L70.1 63.8076C70.1 63.7071 70.6 61.5968 70.1 59.8885C69.6 58.3811 60.4 46.7243 58.5 44.3126C58.4 44.2121 56.5 42.1018 55.3 41.3984C54.1 40.6949 51.6 39.9915 51.5 39.891L33.5 34.1631L26.7 27.0283L9 44.815L9.6 45.217C9.6 45.217 10.8 46.1214 11.7 47.3273C12 47.7292 12.6 49.8395 13.2 51.8493C14.4 56.1703 16 61.4963 17.6 63.3051C19.1 65.1139 22.2 67.5257 24.6 69.435C25.9 70.5404 27.1 71.4448 27.6 71.9472C29.3 73.5551 42.2 86.7192 42.3 86.8197C42.4 86.9202 44.1 88.2265 45.8 88.2265C46.5 88.2265 47.2 88.0256 47.8 87.5231C49.9 85.8148 51.2 79.7854 47.5 72.6507C45.9 69.636 43.3 67.7267 41 66.0183C37.9 63.7071 36.3 62.5012 37.4 60.0894C39.5 55.6679 52.1 57.3762 53.3 57.8787C53.8 58.1801 57 61.4963 57.5 62.6017C57.5 63.3051 57.7 64.712 57.8 66.0183Z" fill="#151515"/>
<path fill-rule="evenodd" clip-rule="evenodd" d="M34.3999 77.8762C34.3999 77.8762 35.9999 74.8615 37.7999 75.0625C39.5999 75.2635 43.4999 78.6801 43.5999 80.5894C43.6999 82.3982 41.4999 85.4129 41.4999 85.4129L34.3999 77.8762Z" fill="white"/>
<path d="M41.6 86.3173L33.7 77.9767L33.8999 77.5747C34.0999 77.2732 35.7999 74.1581 37.8999 74.359C39.9999 74.56 44.1 78.2781 44.2 80.3884C44.3 82.3982 42.2 85.3124 42 85.6139L41.6 86.3173ZM35.2 77.7757L41.3999 84.408C42.0999 83.4031 43 81.5943 43 80.5894C42.9 79.1825 39.4 75.8664 37.8 75.6654C36.8 75.4644 35.7 76.8713 35.2 77.7757Z" fill="#151515"/>
<path fill-rule="evenodd" clip-rule="evenodd" d="M13.4001 25.9229L1.5001 37.6802C1.5001 37.6802 0.600098 38.9866 0.600098 39.5895C0.600098 40.1924 1.4001 40.7954 1.4001 40.7954L6.1001 45.9204C6.1001 45.9204 6.6001 46.6238 7.5001 46.6238C8.4001 46.6238 9.4001 45.8199 9.4001 45.8199L28.2001 26.9278C28.2001 26.9278 28.9001 26.1239 28.9001 25.521C28.9001 24.918 28.4001 24.0136 28.4001 24.0136L22.9001 18.5872C22.9001 18.5872 22.0001 18.0847 21.6001 18.0847C21.2001 18.0847 20.5001 18.4867 20.5001 18.4867L18.6001 20.195" fill="white"/>
<path d="M7.6 47.2268C6.7 47.2268 6 46.6238 5.7 46.3224L1 41.2979C0.8 41.0969 0 40.3935 0 39.5896C0 38.8861 0.8 37.6803 1 37.2783L1.1 37.1778L12.9 25.4205C13.1 25.2195 13.5 25.2195 13.8 25.4205C14 25.6215 14 26.0234 13.8 26.3249L2 38.0822C1.6 38.6851 1.2 39.3886 1.2 39.5896C1.2 39.69 1.5 40.092 1.8 40.293L1.9 40.3935L6.7 45.5185C6.7 45.5185 7 45.9204 7.6 45.9204C8.2 45.9204 8.9 45.418 9.1 45.217L27.9 26.4254C28.1 26.1239 28.4 25.6215 28.4 25.4205C28.4 25.119 28.2 24.6166 28 24.3151L22.7 19.0897C22.3 18.8887 21.9 18.6877 21.8 18.6877C21.7 18.6877 21.3 18.7882 21.1 18.9892L19.2 20.6975C18.9 20.8985 18.6 20.8985 18.3 20.6975C18.1 20.396 18.1 20.0945 18.3 19.7931L20.3 17.9843C20.5 17.8838 21.2 17.4818 21.7 17.4818C22.2 17.4818 23 17.8838 23.3 18.0848L23.4 18.1853L29 23.7122C29.1 23.9132 29.6 24.8176 29.6 25.521C29.6 26.3249 28.9 27.2293 28.7 27.3298L9.9 46.2219C9.8 46.3224 8.7 47.2268 7.6 47.2268Z" fill="#151515"/>
<path d="M9.0001 41.9008C10.8779 41.9008 12.4001 40.3711 12.4001 38.4842C12.4001 36.5972 10.8779 35.0675 9.0001 35.0675C7.12233 35.0675 5.6001 36.5972 5.6001 38.4842C5.6001 40.3711 7.12233 41.9008 9.0001 41.9008Z" fill="white"/>
<path d="M9 42.6042C6.8 42.6042 5 40.7954 5 38.5847C5 36.3739 6.8 34.5651 9 34.5651C11.2 34.5651 13 36.3739 13 38.5847C13 40.7954 11.2 42.6042 9 42.6042ZM9 35.771C7.5 35.771 6.2 37.0773 6.2 38.5847C6.2 40.092 7.5 41.3984 9 41.3984C10.5 41.3984 11.8 40.092 11.8 38.5847C11.8 36.9768 10.5 35.771 9 35.771Z" fill="#151515"/>
<path d="M130.7 99.9838C123.5 99.9838 117.7 105.812 117.7 113.047C117.7 120.283 123.5 126.111 130.7 126.111C137.9 126.111 143.7 120.283 143.7 113.047C143.7 105.812 137.9 99.9838 130.7 99.9838ZM130.7 125.106C124.1 125.106 118.8 119.68 118.8 113.148C118.8 106.616 124.2 101.19 130.7 101.19C137.2 101.19 142.6 106.616 142.6 113.148C142.6 119.68 137.3 125.106 130.7 125.106Z" fill="#C5B358"/>
<path d="M120.5 114.153C120.8 114.153 121 113.851 121 113.55C121 113.349 121 113.248 121 113.047C121 107.621 125.4 103.2 130.8 103.2C132.8 103.2 134.8 103.802 136.5 105.008C136.7 105.209 137.1 105.109 137.3 104.908C137.5 104.707 137.4 104.305 137.2 104.104C135.4 102.798 133.2 102.094 130.9 102.094C124.9 102.094 120 107.018 120 113.047C120 113.248 120 113.449 120 113.65C119.9 113.952 120.1 114.153 120.5 114.153C120.4 114.153 120.4 114.153 120.5 114.153Z" fill="#C5B358"/>
<path d="M121.3 115.66C121.2 115.359 120.9 115.158 120.6 115.258C120.3 115.359 120.1 115.66 120.2 115.962C120.8 118.173 122.2 120.283 124 121.69C124.1 121.79 124.2 121.79 124.3 121.79C124.5 121.79 124.6 121.69 124.7 121.589C124.9 121.388 124.8 120.986 124.6 120.785C123.1 119.579 121.8 117.771 121.3 115.66Z" fill="#C5B358"/>
<path d="M141.6 112.545C141.6 112.244 141.3 112.043 141 112.043C140.7 112.043 140.5 112.344 140.5 112.646C140.5 112.847 140.5 112.947 140.5 113.148C140.5 118.574 136.1 122.996 130.7 122.996C129.2 122.996 127.7 122.695 126.3 121.991C126 121.891 125.7 121.991 125.6 122.192C125.5 122.494 125.6 122.795 125.8 122.895C127.3 123.699 128.9 124.001 130.6 124.001C136.6 124.001 141.5 119.077 141.5 113.047C141.6 112.947 141.6 112.746 141.6 112.545Z" fill="#C5B358"/>
<path d="M140.1 110.535C140.2 110.736 140.4 110.937 140.6 110.937H140.7C141 110.837 141.2 110.535 141.1 110.234C140.7 108.726 140 107.42 139 106.214C138.8 106.013 138.5 105.913 138.2 106.114C138 106.315 137.9 106.616 138.1 106.918C139.2 108.023 139.8 109.229 140.1 110.535Z" fill="#C5B358"/>
<path d="M185.5 90.5378C178.3 90.5378 172.5 96.3662 172.5 103.602C172.5 110.837 178.3 116.665 185.5 116.665C192.7 116.665 198.5 110.837 198.5 103.602C198.5 96.3662 192.7 90.5378 185.5 90.5378ZM185.5 115.56C178.9 115.56 173.6 110.133 173.6 103.602C173.6 96.9692 179 91.6432 185.5 91.6432C192.1 91.6432 197.4 97.0697 197.4 103.602C197.4 110.234 192.1 115.56 185.5 115.56Z" fill="#C5B358"/>
<path d="M175.2 104.707C175.5 104.707 175.7 104.405 175.7 104.104C175.7 103.903 175.7 103.803 175.7 103.602C175.7 98.1751 180.1 93.7536 185.5 93.7536C187.5 93.7536 189.5 94.3565 191.2 95.5624C191.4 95.7634 191.8 95.6629 192 95.4619C192.2 95.2609 192.1 94.859 191.9 94.658C190.1 93.3516 187.9 92.6482 185.6 92.6482C179.6 92.6482 174.7 97.5722 174.7 103.602C174.7 103.803 174.7 104.004 174.7 104.205C174.7 104.506 174.9 104.707 175.2 104.707Z" fill="#C5B358"/>
<path d="M176 106.214C175.9 105.913 175.6 105.712 175.3 105.812C175 105.913 174.8 106.214 174.9 106.516C175.5 108.726 176.9 110.837 178.7 112.244C178.8 112.344 178.9 112.344 179 112.344C179.2 112.344 179.3 112.244 179.4 112.143C179.6 111.942 179.5 111.54 179.3 111.339C177.8 110.033 176.6 108.224 176 106.214Z" fill="#C5B358"/>
<path d="M196.3 102.999C196.3 102.697 196 102.496 195.7 102.496C195.4 102.496 195.2 102.798 195.2 103.099C195.2 103.3 195.2 103.401 195.2 103.601C195.2 109.028 190.8 113.449 185.4 113.449C183.9 113.449 182.4 113.148 181 112.445C180.7 112.344 180.4 112.445 180.3 112.646C180.2 112.947 180.3 113.248 180.5 113.349C182 114.153 183.6 114.454 185.3 114.454C191.3 114.454 196.2 109.53 196.2 103.501C196.3 103.401 196.3 103.2 196.3 102.999Z" fill="#C5B358"/>
<path d="M194.9 100.989C195 101.19 195.2 101.391 195.4 101.391H195.5C195.8 101.29 196 100.989 195.9 100.687C195.5 99.18 194.8 97.8736 193.8 96.6677C193.6 96.4668 193.3 96.3663 193 96.5673C192.8 96.7682 192.7 97.0697 192.9 97.3712C193.9 98.4765 194.5 99.6824 194.9 100.989Z" fill="#C5B358"/>
<path d="M162.7 91.4422C150.9 91.4422 141.3 81.7952 141.3 69.9374C141.3 58.0796 150.9 48.4326 162.7 48.4326C174.5 48.4326 184.1 58.0796 184.1 69.9374C184.1 81.7952 174.5 91.4422 162.7 91.4422ZM162.7 49.739C151.6 49.739 142.5 58.7831 142.5 70.0379C142.5 81.2928 151.5 90.3368 162.7 90.3368C173.9 90.3368 182.9 81.2928 182.9 70.0379C182.9 58.7831 173.9 49.739 162.7 49.739Z" fill="#C5B358"/>
<path fill-rule="evenodd" clip-rule="evenodd" d="M152 82.9006C149.4 80.6899 147.4 77.6752 146.5 74.158C146.5 73.8566 146.2 73.6556 145.9 73.6556C145.6 73.6556 145.3 73.957 145.3 74.2585V74.359C146.2 78.0771 148.3 81.3933 151.2 83.805C151.2 83.805 151.2 83.805 151.3 83.9055C151.4 84.006 151.5 84.006 151.6 84.006C151.9 84.006 152.2 83.7045 152.2 83.4031C152.3 83.2021 152.2 83.0011 152 82.9006Z" fill="#C5B358"/>
<path fill-rule="evenodd" clip-rule="evenodd" d="M180.7 68.832C180.7 68.7315 180.7 68.7315 180.7 68.7315C180.6 68.5306 180.4 68.3296 180.1 68.3296C179.8 68.3296 179.5 68.6311 179.5 68.9325V69.033C179.5 69.3345 179.5 69.7364 179.5 70.0379C179.5 79.283 172 86.8197 162.8 86.8197C160.1 86.8197 157.5 86.1163 155.3 85.0109C155.2 84.9104 155.1 84.9104 155 84.9104C154.7 84.9104 154.4 85.2119 154.4 85.5133C154.4 85.7143 154.5 85.9153 154.7 86.0158C154.7 86.0158 154.7 86.0158 154.8 86.0158C157.2 87.2217 160 87.9251 162.9 87.9251C172.8 87.9251 180.9 79.7854 180.9 69.8369C180.7 69.636 180.7 69.234 180.7 68.832Z" fill="#C5B358"/>
<path fill-rule="evenodd" clip-rule="evenodd" d="M180 64.8124C180 64.7119 180 64.7119 180 64.7119C179.2 62.1997 177.9 59.8884 176.2 57.9791C176.1 57.8786 175.9 57.7781 175.7 57.7781C175.4 57.7781 175.1 58.0796 175.1 58.3811C175.1 58.5821 175.2 58.6825 175.3 58.783C176.9 60.5918 178.1 62.7021 178.9 65.1139C179 65.4154 179.2 65.5158 179.5 65.5158C179.8 65.5158 180.1 65.2144 180.1 64.9129C180 64.9129 180 64.8124 180 64.8124Z" fill="#C5B358"/>
<path fill-rule="evenodd" clip-rule="evenodd" d="M173.1 55.2659C170.2 53.1556 166.6 51.9498 162.7 51.9498C152.8 51.9498 144.7 60.0894 144.7 70.0379C144.7 70.1384 144.7 70.3394 144.7 70.4399C144.7 70.4399 144.7 70.4399 144.7 70.5404C144.7 70.8418 145 71.0428 145.3 71.0428C145.6 71.0428 145.9 70.7414 145.9 70.4399C145.9 70.3394 145.9 70.1384 145.9 70.0379C145.9 60.7929 153.4 53.2561 162.6 53.2561C166.2 53.2561 169.5 54.3615 172.2 56.3713C172.3 56.4718 172.4 56.4718 172.5 56.4718C172.8 56.4718 173.1 56.1703 173.1 55.8689C173.3 55.5674 173.2 55.3664 173.1 55.2659Z" fill="#C5B358"/>
<path d="M163.3 83.1016L160 82.2976L160.9 78.7805C160.7 78.7805 160.6 78.68 160.4 78.68L159.5 82.1972L156.2 81.3932L157.1 77.7756C156.8 77.6751 156.5 77.5746 156.2 77.5746L152.7 76.6702L154.3 73.0526L154.8 73.1531C155.2 73.2536 155.6 73.3541 155.9 73.4546L156.3 73.555C156.4 73.555 156.5 73.555 156.5 73.4546L158.9 63.908C158.9 63.6066 158.8 63.5061 158.4 63.3051L158 63.2046C157.7 63.1041 157.3 63.0036 156.9 62.9031L156.3 62.8026L157.2 59.2855L161.3 60.2904C161.4 60.2904 161.4 60.2904 161.5 60.2904L162.4 56.7733L165.7 57.5772L164.8 60.9938C165 60.9938 165.1 61.0943 165.3 61.0943L166.2 57.6777L169.5 58.4816L168.6 62.0992C170.2 62.7022 173.3 64.109 172.8 67.5257C172.6 69.033 171.9 70.1384 170.8 70.7413C172.4 72.0477 172.8 73.756 172 75.9668C170.7 79.7854 167.5 79.8859 164.4 79.3834L163.3 83.1016ZM161.4 81.3932L162.3 81.5942L163.2 78.0771L163.8 78.1776C167.8 78.9815 169.7 78.2781 170.6 75.6653C171.3 73.555 170.8 72.2487 168.9 71.2438L167.4 70.4399L169 70.0379C170.3 69.7364 171 68.832 171.2 67.4252C171.5 65.5159 170.3 64.2095 167.3 63.2046L166.8 63.0036L167.7 59.4865L166.8 59.2855L165.9 62.7021L165.3 62.5012C164.7 62.4007 164.2 62.1997 163.6 62.0992L163 61.9987L163.9 58.5821L163 58.3811L162.1 61.8982L161.5 61.7977C161 61.6973 160.6 61.5968 160.1 61.4963L159.5 61.3958L157.7 60.9938L157.4 62.0992C157.9 62.1997 158.1 62.3002 158.4 62.3002C159.4 62.5012 159.9 63.2046 159.9 64.2095V64.31L158.9 68.3296L158.6 68.2291L158.9 68.3296L157.5 74.0575C157.2 74.7609 156.6 75.1629 155.8 74.9619C155.6 74.9619 155.2 74.8614 154.8 74.7609L154.2 76.0673L156.3 76.5697C156.6 76.6702 156.9 76.7707 157.2 76.7707L158.4 77.0722L157.5 80.5893L158.4 80.7903L159.3 77.2731L159.9 77.4741C160.5 77.6751 161 77.7756 161.6 77.8761L162.2 77.9766L161.4 81.3932ZM164.5 76.5697C163.2 76.5697 161.7 76.1678 160.8 75.9668C160.6 75.9668 160.5 75.8663 160.4 75.8663L159.8 75.7658L161.3 69.8369L161.9 70.0379C162 70.0379 162.2 70.1384 162.4 70.1384C163.9 70.4399 166.5 71.0428 167.5 72.6506C167.9 73.2536 168 73.957 167.8 74.6604C167.6 75.3639 167.2 75.8663 166.7 76.2683C166 76.4692 165.3 76.5697 164.5 76.5697ZM161.3 74.8614C162.5 75.1629 164.8 75.7658 165.9 75.0624C166.2 74.8614 166.4 74.6604 166.5 74.2585C166.6 73.8565 166.6 73.555 166.4 73.2536C165.7 72.1482 163.5 71.6457 162.2 71.3443L161.3 74.8614ZM165.4 69.6359C164.3 69.6359 163.2 69.3345 162.4 69.1335L161.5 68.9325L162.9 63.4056L163.5 63.5061C163.6 63.5061 163.8 63.6066 163.9 63.6066C165.2 63.908 167.3 64.31 168.1 65.7168C168.5 66.3198 168.5 66.9227 168.4 67.6261C168.2 68.3296 167.9 68.832 167.3 69.1335C166.8 69.5355 166.1 69.6359 165.4 69.6359ZM163 67.9276C164 68.2291 165.8 68.631 166.6 68.0281C166.9 67.8271 167 67.6261 167.1 67.3247C167.2 66.9227 167.2 66.6212 167 66.3198C166.5 65.4154 164.7 65.0134 163.7 64.8124L163 67.9276Z" fill="#C5B358"/>
<path d="M242.9 106.114C235.7 106.114 229.9 111.942 229.9 119.177C229.9 126.413 235.7 132.241 242.9 132.241C250.1 132.241 255.9 126.413 255.9 119.177C256 111.942 250.1 106.114 242.9 106.114ZM242.9 131.136C236.3 131.136 231 125.709 231 119.177C231 112.545 236.4 107.219 242.9 107.219C249.5 107.219 254.8 112.646 254.8 119.177C254.9 125.81 249.5 131.136 242.9 131.136Z" fill="#C5B358"/>
<path d="M232.7 120.283C233 120.283 233.2 119.981 233.2 119.68C233.2 119.479 233.2 119.378 233.2 119.177C233.2 113.751 237.6 109.329 243 109.329C245 109.329 247 109.932 248.7 111.138C248.9 111.339 249.3 111.239 249.5 111.038C249.7 110.837 249.6 110.435 249.4 110.234C247.6 108.927 245.4 108.224 243.1 108.224C237.1 108.224 232.2 113.148 232.2 119.177C232.2 119.378 232.2 119.579 232.2 119.78C232.1 120.082 232.4 120.283 232.7 120.283Z" fill="#C5B358"/>
<path d="M233.5 121.79C233.4 121.489 233.1 121.288 232.8 121.388C232.5 121.489 232.3 121.79 232.4 122.092C233 124.302 234.4 126.413 236.2 127.82C236.3 127.92 236.4 127.92 236.5 127.92C236.7 127.92 236.8 127.82 236.9 127.719C237.1 127.518 237 127.116 236.8 126.915C235.3 125.609 234.1 123.8 233.5 121.79Z" fill="#C5B358"/>
<path d="M253.8 118.574C253.8 118.273 253.5 118.072 253.2 118.072C252.9 118.072 252.7 118.373 252.7 118.675C252.7 118.876 252.7 118.976 252.7 119.177C252.7 124.604 248.3 129.025 242.9 129.025C241.4 129.025 239.9 128.724 238.5 128.02C238.2 127.92 237.9 128.02 237.8 128.221C237.7 128.523 237.8 128.824 238 128.925C239.5 129.729 241.1 130.03 242.8 130.03C248.8 130.03 253.7 125.106 253.7 119.077C253.8 118.976 253.8 118.775 253.8 118.574Z" fill="#C5B358"/>
<path d="M252.4 116.565C252.5 116.766 252.7 116.967 252.9 116.967H253C253.3 116.866 253.5 116.565 253.4 116.263C253 114.756 252.3 113.449 251.3 112.244C251.1 112.043 250.8 111.942 250.5 112.143C250.3 112.344 250.2 112.646 250.4 112.947C251.4 114.052 252 115.258 252.4 116.565Z" fill="#C5B358"/>
<path d="M282.4 85.6138C275.2 85.6138 269.4 91.4422 269.4 98.6775C269.4 105.913 275.2 111.741 282.4 111.741C289.6 111.741 295.4 105.913 295.4 98.6775C295.4 91.4422 289.6 85.6138 282.4 85.6138ZM282.4 110.736C275.8 110.736 270.5 105.31 270.5 98.778C270.5 92.1456 275.9 86.8197 282.4 86.8197C289 86.8197 294.3 92.2461 294.3 98.778C294.3 105.31 289 110.736 282.4 110.736Z" fill="#C5B358"/>
<path d="M272.1 99.7828C272.4 99.7828 272.6 99.4814 272.6 99.1799C272.6 98.9789 272.6 98.8784 272.6 98.6775C272.6 93.251 277 88.8295 282.4 88.8295C284.4 88.8295 286.4 89.4324 288.1 90.6383C288.3 90.8393 288.7 90.7388 288.9 90.5378C289.1 90.3368 289 89.9348 288.8 89.7339C287 88.4275 284.8 87.7241 282.5 87.7241C276.5 87.7241 271.6 92.6481 271.6 98.6775C271.6 98.8784 271.6 99.0794 271.6 99.2804C271.6 99.5818 271.8 99.7828 272.1 99.7828Z" fill="#C5B358"/>
<path d="M273 101.29C272.9 100.989 272.6 100.788 272.3 100.888C272 100.989 271.8 101.29 271.9 101.592C272.5 103.802 273.9 105.913 275.7 107.32C275.8 107.42 275.9 107.42 276 107.42C276.2 107.42 276.3 107.32 276.4 107.219C276.6 107.018 276.5 106.616 276.3 106.415C274.7 105.109 273.5 103.3 273 101.29Z" fill="#C5B358"/>
<path d="M293.2 98.0745C293.2 97.7731 292.9 97.5721 292.6 97.5721C292.3 97.5721 292.1 97.8736 292.1 98.175C292.1 98.376 292.1 98.4765 292.1 98.6775C292.1 104.104 287.7 108.525 282.3 108.525C280.8 108.525 279.3 108.224 277.9 107.521C277.6 107.42 277.3 107.521 277.2 107.722C277.1 108.023 277.2 108.324 277.4 108.425C278.9 109.229 280.5 109.53 282.2 109.53C288.2 109.53 293.1 104.606 293.1 98.577C293.2 98.4765 293.2 98.2755 293.2 98.0745Z" fill="#C5B358"/>
<path d="M291.8 96.1653C291.9 96.3663 292.1 96.5672 292.3 96.5672H292.4C292.7 96.4667 292.9 96.1653 292.8 95.8638C292.4 94.3564 291.7 93.0501 290.7 91.8442C290.5 91.6432 290.2 91.5427 289.9 91.7437C289.7 91.9447 289.6 92.2462 289.8 92.5476C290.8 93.5525 291.5 94.7584 291.8 96.1653Z" fill="#C5B358"/>
<path d="M318.5 104.908C311.3 104.908 305.5 110.736 305.5 117.972C305.5 125.207 311.3 131.035 318.5 131.035C325.7 131.035 331.5 125.207 331.5 117.972C331.5 110.837 325.7 104.908 318.5 104.908ZM318.5 130.03C311.9 130.03 306.6 124.604 306.6 118.072C306.6 111.54 312 106.114 318.5 106.114C325.1 106.114 330.4 111.54 330.4 118.072C330.4 124.604 325.1 130.03 318.5 130.03Z" fill="#C5B358"/>
<path d="M308.2 119.077C308.5 119.077 308.7 118.775 308.7 118.474C308.7 118.273 308.7 118.172 308.7 117.972C308.7 112.545 313.1 108.124 318.5 108.124C320.5 108.124 322.5 108.726 324.2 109.932C324.4 110.133 324.8 110.033 325 109.832C325.2 109.631 325.1 109.229 324.9 109.028C323.1 107.722 320.9 107.018 318.6 107.018C312.6 107.018 307.7 111.942 307.7 117.972C307.7 118.172 307.7 118.373 307.7 118.574C307.7 118.876 307.9 119.077 308.2 119.077Z" fill="#C5B358"/>
<path d="M309.1 120.584C309 120.283 308.7 120.082 308.4 120.182C308.1 120.283 307.9 120.584 308 120.886C308.6 123.097 310 125.207 311.8 126.614C311.9 126.714 312 126.714 312.1 126.714C312.3 126.714 312.4 126.614 312.5 126.513C312.7 126.312 312.6 125.91 312.4 125.709C310.8 124.503 309.6 122.594 309.1 120.584Z" fill="#C5B358"/>
<path d="M329.3 117.469C329.3 117.168 329 116.967 328.7 116.967C328.4 116.967 328.2 117.268 328.2 117.57C328.2 117.771 328.2 117.871 328.2 118.072C328.2 123.498 323.8 127.92 318.4 127.92C316.9 127.92 315.4 127.619 314 126.915C313.7 126.815 313.4 126.915 313.3 127.116C313.2 127.418 313.3 127.719 313.5 127.82C315 128.623 316.6 128.925 318.3 128.925C324.3 128.925 329.2 124.001 329.2 117.972C329.4 117.871 329.3 117.67 329.3 117.469Z" fill="#C5B358"/>
<path d="M327.9 115.459C328 115.66 328.2 115.861 328.4 115.861H328.5C328.8 115.761 329 115.459 328.9 115.158C328.5 113.65 327.8 112.344 326.8 111.138C326.6 110.937 326.3 110.837 326 111.038C325.8 111.239 325.7 111.54 325.9 111.842C326.9 112.847 327.6 114.153 327.9 115.459Z" fill="#C5B358"/>
<path d="M318.6 102.396C306.8 102.396 297.2 92.7486 297.2 80.8908C297.2 69.0331 306.8 59.386 318.6 59.386C330.4 59.386 340 69.0331 340 80.8908C340 92.7486 330.4 102.396 318.6 102.396ZM318.6 60.5919C307.5 60.5919 298.4 69.636 298.4 80.8908C298.4 92.0452 307.4 101.19 318.6 101.19C329.8 101.19 338.8 92.1457 338.8 80.8908C338.8 69.7365 329.7 60.5919 318.6 60.5919Z" fill="#C5B358"/>
<path fill-rule="evenodd" clip-rule="evenodd" d="M307.9 93.7535C305.3 91.5427 303.3 88.5281 302.4 85.0109C302.4 84.7095 302.1 84.5085 301.8 84.5085C301.5 84.5085 301.2 84.81 301.2 85.1114V85.2119C302.1 88.93 304.2 92.2462 307.1 94.658C307.1 94.658 307.1 94.6579 307.2 94.7584C307.3 94.8589 307.4 94.8589 307.5 94.8589C307.8 94.8589 308.1 94.5574 308.1 94.256C308.1 94.055 308 93.854 307.9 93.7535Z" fill="#C5B358"/>
<path fill-rule="evenodd" clip-rule="evenodd" d="M336.6 79.7854C336.6 79.6849 336.6 79.6849 336.6 79.6849C336.5 79.4839 336.3 79.283 336 79.283C335.7 79.283 335.4 79.5844 335.4 79.8859V79.9864C335.4 80.2879 335.4 80.6898 335.4 80.9913C335.4 90.2364 327.9 97.7731 318.7 97.7731C316 97.7731 313.4 97.0696 311.2 95.9643C311.1 95.8638 311 95.8638 310.9 95.8638C310.6 95.8638 310.3 96.1652 310.3 96.4667C310.3 96.6677 310.4 96.8687 310.6 96.9692C310.6 96.9692 310.6 96.9692 310.7 96.9692C313.1 98.175 315.9 98.8785 318.8 98.8785C328.7 98.8785 336.8 90.7388 336.8 80.7903C336.6 80.4888 336.6 80.1874 336.6 79.7854Z" fill="#C5B358"/>
<path fill-rule="evenodd" clip-rule="evenodd" d="M335.8 75.6654C335.8 75.5649 335.8 75.5649 335.8 75.5649C335 73.0526 333.7 70.7414 332 68.8321C331.9 68.7316 331.7 68.6311 331.5 68.6311C331.2 68.6311 330.9 68.9326 330.9 69.234C330.9 69.435 331 69.5355 331.1 69.636C332.7 71.4448 333.9 73.5551 334.7 75.9669C334.8 76.2683 335 76.3688 335.3 76.3688C335.6 76.3688 335.9 76.0673 335.9 75.7659C335.9 75.7659 335.8 75.7659 335.8 75.6654Z" fill="#C5B358"/>
<path fill-rule="evenodd" clip-rule="evenodd" d="M329 66.1188C326.1 64.0086 322.5 62.8027 318.6 62.8027C308.7 62.8027 300.6 70.9423 300.6 80.8908C300.6 80.9913 300.6 81.1923 300.6 81.2928C300.6 81.2928 300.6 81.2928 300.6 81.3933C300.6 81.6947 300.9 81.8957 301.2 81.8957C301.5 81.8957 301.8 81.5942 301.8 81.2928C301.8 81.1923 301.8 80.9913 301.8 80.8908C301.8 71.6458 309.3 64.109 318.5 64.109C322.1 64.109 325.4 65.2144 328.1 67.2242C328.2 67.3247 328.3 67.3247 328.4 67.3247C328.7 67.3247 329 67.0232 329 66.7218C329.2 66.4203 329.1 66.2193 329 66.1188Z" fill="#C5B358"/>
<path d="M310.9 82.6996L318.7 93.653L326.5 82.6996L318.7 87.3221L310.9 82.6996ZM322 86.7192L318.6 91.5427L315.2 86.7192L317.9 88.327C318.1 88.4275 318.3 88.528 318.5 88.528C318.7 88.528 318.9 88.4275 319.1 88.327L322 86.7192Z" fill="#C5B358"/>
<path d="M326.4 80.9913L318.6 68.0281L310.9 81.0918L318.6 85.8148L326.4 80.9913ZM318.6 70.5404L323.8 79.1825L318.9 76.9717C318.7 76.8712 318.5 76.8712 318.4 76.9717L313.5 79.283L318.6 70.5404ZM312.8 80.8908L318.6 78.1776L324.4 80.7903L318.6 84.408L312.8 80.8908Z" fill="#C5B358"/>
<path d="M230.5 98.6775C218.7 98.6775 209.1 89.0305 209.1 77.1727C209.1 65.3149 218.7 55.6679 230.5 55.6679C242.3 55.6679 251.9 65.3149 251.9 77.1727C251.9 89.0305 242.3 98.6775 230.5 98.6775ZM230.5 56.8738C219.4 56.8738 210.3 65.9179 210.3 77.1727C210.3 88.3271 219.3 97.4716 230.5 97.4716C241.6 97.4716 250.7 88.4276 250.7 77.1727C250.6 66.0184 241.6 56.8738 230.5 56.8738Z" fill="#C5B358"/>
<path fill-rule="evenodd" clip-rule="evenodd" d="M219.7 90.0354C217.1 87.8246 215.1 84.8099 214.2 81.2928C214.2 80.9913 213.9 80.7903 213.6 80.7903C213.3 80.7903 213 81.0918 213 81.3933V81.4938C213.9 85.2119 216 88.5281 218.9 90.9398C218.9 90.9398 218.9 90.9398 219 91.0403C219.1 91.1408 219.2 91.1408 219.3 91.1408C219.6 91.1408 219.9 90.8393 219.9 90.5379C220 90.3369 219.9 90.1359 219.7 90.0354Z" fill="#C5B358"/>
<path fill-rule="evenodd" clip-rule="evenodd" d="M248.4 76.0673C248.4 76.0673 248.4 75.9668 248.4 76.0673C248.4 75.9668 248.4 75.9668 248.4 75.9668C248.3 75.7658 248.1 75.5648 247.8 75.5648C247.5 75.5648 247.2 75.8663 247.2 76.1678V76.2682C247.2 76.5697 247.2 76.9717 247.2 77.2731C247.2 86.5182 239.7 94.0549 230.5 94.0549C227.8 94.0549 225.2 93.3515 223 92.2461C222.9 92.1456 222.8 92.1456 222.7 92.1456C222.4 92.1456 222.1 92.4471 222.1 92.7486C222.1 92.9495 222.2 93.1505 222.4 93.251C222.4 93.251 222.4 93.251 222.5 93.251C224.9 94.4569 227.7 95.1603 230.6 95.1603C240.5 95.1603 248.6 87.0206 248.6 77.0722C248.5 76.7707 248.4 76.3687 248.4 76.0673Z" fill="#C5B358"/>
<path fill-rule="evenodd" clip-rule="evenodd" d="M247.7 71.9472C247.7 71.8468 247.7 71.8467 247.7 71.8467C246.9 69.3345 245.6 67.0232 243.9 65.1139C243.8 65.0135 243.6 64.913 243.4 64.913C243.1 64.913 242.8 65.2144 242.8 65.5159C242.8 65.7169 242.9 65.8174 243 65.9179C244.6 67.7267 245.8 69.8369 246.6 72.2487C246.7 72.5502 246.9 72.6507 247.2 72.6507C247.5 72.6507 247.8 72.3492 247.8 72.0477C247.7 72.0477 247.7 72.0477 247.7 71.9472Z" fill="#C5B358"/>
<path fill-rule="evenodd" clip-rule="evenodd" d="M240.8 62.4008C237.9 60.2905 234.3 59.0846 230.4 59.0846C220.5 59.0846 212.4 67.2243 212.4 77.1727C212.4 77.2732 212.4 77.4742 212.4 77.5747C212.4 77.5747 212.4 77.5747 212.4 77.6752C212.4 77.9767 212.7 78.1776 213 78.1776C213.3 78.1776 213.6 77.8762 213.6 77.5747C213.6 77.4742 213.6 77.2732 213.6 77.1727C213.6 67.9277 221.1 60.391 230.3 60.391C233.9 60.391 237.2 61.4963 239.9 63.5061C240 63.6066 240.1 63.6066 240.2 63.6066C240.5 63.6066 240.8 63.3052 240.8 63.0037C241.1 62.7022 241 62.5012 240.8 62.4008Z" fill="#C5B358"/>
<path d="M238.4 87.1212H221.8L223.3 81.5943L221.1 82.3982L222.2 78.1776L224.4 77.3737L227.1 67.2242H234.1L232.2 74.56L234.5 73.7561L235.1 73.5551L234 77.7757L231.1 78.7806L230.2 82.2977H239.8L238.4 87.1212ZM223.5 85.8148H237.5L238.1 83.4031H228.5L230 77.7757L232.9 76.7708L233.2 75.4644L230.3 76.4693L232.4 68.4301H227.9L225.3 78.2781L223.1 79.082L222.8 80.3884L225 79.5845L223.5 85.8148Z" fill="#C5B358"/>
<path d="M280.1 69.234C261.3 69.234 246 53.8591 246 34.967C246 16.0749 261.3 0.700012 280.1 0.700012C298.9 0.700012 314.2 16.0749 314.2 34.967C314.2 53.8591 298.9 69.234 280.1 69.234ZM280.1 1.90589C262 1.90589 247.2 16.6779 247.2 34.967C247.2 53.2561 261.9 68.0281 280.1 68.0281C298.2 68.0281 313 53.2561 313 34.967C313 16.6779 298.2 1.90589 280.1 1.90589Z" fill="#C5B358"/>
<path d="M262.7 56.0698C258.4 52.4522 255.2 47.5282 253.7 41.8003C253.6 41.4988 253.4 41.2979 253.1 41.2979C252.8 41.2979 252.5 41.5993 252.5 41.9008V42.0013C254 47.9302 257.4 53.1556 261.9 56.9742C262 57.0747 262.1 57.0747 262.3 57.0747C262.6 57.0747 262.9 56.7733 262.9 56.4718C262.9 56.3713 262.8 56.1703 262.7 56.0698Z" fill="#C5B358"/>
<path d="M308.6 33.2587C308.6 33.1582 308.6 33.1582 308.6 33.0577C308.5 32.7562 308.3 32.5552 308 32.5552C307.7 32.5552 307.4 32.8567 307.4 33.1582C307.4 33.6606 307.5 34.2636 307.5 34.766C307.5 49.8395 295.3 62.1997 280.2 62.1997C275.8 62.1997 271.7 61.0943 268 59.2855C267.9 59.2855 267.9 59.2855 267.8 59.2855C267.5 59.2855 267.2 59.587 267.2 59.8885C267.2 60.0894 267.3 60.2904 267.5 60.3909C271.3 62.3002 275.6 63.4056 280.2 63.4056C295.9 63.4056 308.7 50.5429 308.7 34.766C308.6 34.3641 308.6 33.8616 308.6 33.2587Z" fill="#C5B358"/>
<path d="M307.4 26.7269C307.4 26.6264 307.4 26.6264 307.4 26.7269C307.4 26.6264 307.4 26.6264 307.4 26.6264C306.2 22.7073 304.1 19.0897 301.5 16.075C301.4 15.9745 301.2 15.874 301.1 15.874C300.8 15.874 300.5 16.1755 300.5 16.477C300.5 16.6779 300.6 16.7784 300.7 16.8789C303.3 19.7931 305.2 23.2098 306.4 27.0284C306.5 27.3298 306.7 27.5308 307 27.5308C307.3 27.5308 307.6 27.2294 307.6 26.9279C307.4 26.7269 307.4 26.7269 307.4 26.7269Z" fill="#C5B358"/>
<path d="M296.5 11.5529C296.6 11.5529 296.6 11.5529 296.5 11.5529C291.9 8.23676 286.2 6.32745 280.1 6.32745C264.4 6.32745 251.6 19.1901 251.6 34.967C251.6 35.168 251.6 35.369 251.6 35.57C251.6 35.8714 251.9 36.1729 252.2 36.1729C252.5 36.1729 252.8 35.8714 252.8 35.57C252.8 35.369 252.8 35.2685 252.8 35.0675C252.8 19.994 265 7.63382 280.1 7.63382C285.9 7.63382 291.4 9.54313 295.8 12.6583C295.9 12.7588 296 12.7588 296.2 12.7588C296.5 12.7588 296.8 12.4573 296.8 12.1559C296.8 11.8544 296.7 11.6534 296.5 11.5529Z" fill="#C5B358"/>
<path d="M280.6 55.7684L275.8 54.5625L277.3 48.7341C276.8 48.6336 276.2 48.4327 275.7 48.3322L274.2 54.1606L269.4 52.9547L270.9 47.0258L270.5 46.9253C270 46.8248 269.5 46.6238 269 46.5233L263.7 45.217L266 39.9915L266.5 40.092C266.8 40.1925 267.2 40.293 267.5 40.3935L269.1 40.7954C269.4 40.8959 269.8 40.8959 270 40.3935L272.2 31.6509L274 24.4156C274 23.7122 273.6 23.2097 272.8 23.0087L271.4 22.7073C271 22.6068 270.6 22.5063 270.2 22.4058L269.6 22.3053L270.8 17.2808L276.9 18.7882C277.3 18.8887 277.6 18.9892 278 19.0897L279.5 13.1608L284.3 14.3666L282.9 20.0946C283.4 20.195 284 20.396 284.5 20.4965L285.9 14.7686L290.7 15.9745L289.2 21.9034C292.7 23.2097 297 25.521 296.2 30.646C295.8 33.2587 294.6 35.0675 292.5 35.9719C295.4 37.9817 296.2 40.8959 294.9 44.7145C292.8 50.8444 287.4 50.9449 282.2 50.0405L280.6 55.7684ZM277.4 53.6581L279.8 54.2611L281.3 48.3322L281.9 48.4326C287.7 49.538 291.9 49.2366 293.7 44.0111C295 40.293 294.1 37.8812 290.7 36.0724L289.2 35.2685L290.8 34.8665C293.1 34.3641 294.5 32.7563 294.9 30.1435C295.4 26.7269 293.3 24.4156 288.2 22.6068L287.7 22.4058L289.1 16.5774L286.7 15.9745L285.3 21.7024L284.7 21.5014C283.8 21.3004 282.8 20.999 281.9 20.798L281.3 20.6975L282.7 14.9696L280.3 14.3666L278.8 20.195L278.2 20.0946C277.4 19.8936 276.7 19.6926 275.9 19.5921L275.3 19.4916L271.6 18.5872L271 21.1999C272.1 21.4009 272.6 21.6019 273 21.7024C274.4 22.1044 275.2 23.0088 275.1 24.4156V24.5161L273.4 31.2489H273.2H273.4L271 40.6949C270.6 41.6998 269.7 42.2023 268.6 41.9008C268.2 41.8003 267.6 41.6998 266.5 41.3984L265.2 44.3126L269.1 45.3175C269.6 45.418 270.1 45.6189 270.7 45.7194L272.3 46.1214L270.8 52.0503L273.1 52.6532L274.6 46.7243L275.2 46.9253C276.2 47.2268 277.1 47.4277 278 47.6287L278.6 47.7292L277.4 53.6581ZM283 45.1165C280.8 45.1165 278.5 44.5135 277 44.1116C276.7 44.0111 276.5 44.0111 276.3 43.9106L275.7 43.8101L278 34.7661L278.6 34.967C278.8 35.0675 279.1 35.0675 279.5 35.168C282 35.7709 286.1 36.6753 287.7 39.0871C288.3 39.9915 288.4 40.9964 288.1 42.1018C287.8 43.1067 287.3 43.9106 286.4 44.4131C285.3 44.9155 284.2 45.1165 283 45.1165ZM277.2 42.8052H277.3C279.3 43.3077 283.6 44.5135 285.6 43.2072C286.2 42.8052 286.6 42.3028 286.7 41.5993C286.9 40.7954 286.8 40.1925 286.4 39.4891C285.2 37.4793 281.2 36.5749 279 36.0724C278.9 36.0724 278.8 36.0724 278.7 35.9719L277.2 42.8052ZM284.6 33.3592C282.8 33.3592 280.9 32.8567 279.7 32.5553C279.5 32.4548 279.3 32.4548 279.1 32.3543L278.5 32.2538L280.6 23.9132L281.2 24.0136C281.4 24.0136 281.6 24.1141 281.9 24.2146C283.9 24.7171 287.3 25.4205 288.7 27.5308C289.2 28.3347 289.4 29.3396 289.1 30.445C288.8 31.4499 288.3 32.2538 287.5 32.7563C286.6 33.1582 285.6 33.3592 284.6 33.3592ZM280 31.3494C281.6 31.7514 285 32.6558 286.8 31.6509C287.3 31.3494 287.7 30.847 287.9 30.1435C288.1 29.4401 288 28.7367 287.7 28.2342C286.7 26.5259 283.4 25.8225 281.7 25.4205H281.6L280 31.3494Z" fill="#C5B358"/>
</svg>